{"glyphs":{"0":{"ha":960,"x_min":67,"x_max":893,"o":"m 481 976 q 786 849 679 976 q 893 486 893 722 q 786 123 893 250 q 481 -4 679 -4 q 174 123 281 -4 q 67 486 67 250 q 174 849 67 722 q 481 976 281 976 m 481 847 q 235 486 235 847 q 481 125 235 125 q 725 486 725 125 q 481 847 725 847 z "},"1":{"ha":538,"x_min":18,"x_max":372,"o":"m 372 0 l 208 0 l 208 826 l 18 826 l 18 972 l 372 972 l 372 0 z "},"2":{"ha":817,"x_min":46,"x_max":754,"o":"m 400 979 q 624 913 539 979 q 710 735 710 846 q 532 415 710 607 l 279 147 l 754 147 l 754 0 l 63 0 l 63 119 l 421 504 q 539 711 539 625 q 496 803 539 769 q 376 836 453 836 q 111 714 244 836 l 46 840 q 400 979 217 979 z "},"3":{"ha":749,"x_min":6,"x_max":688,"o":"m 364 568 l 414 563 q 613 483 539 551 q 688 301 688 414 q 591 78 688 164 q 333 -7 494 -7 q 156 22 244 -7 q 6 99 68 50 l 74 232 q 322 131 182 131 q 472 176 418 131 q 526 297 526 221 q 473 416 526 375 q 321 457 419 457 l 186 457 l 186 553 l 439 825 l 50 825 l 50 971 l 642 971 l 642 868 l 364 568 z "},"4":{"ha":832,"x_min":42,"x_max":800,"o":"m 217 385 l 506 385 l 506 615 l 658 615 l 658 385 l 800 385 l 800 239 l 658 239 l 658 0 l 506 0 l 506 239 l 42 239 l 42 361 l 374 972 l 532 972 l 217 385 z "},"5":{"ha":801,"x_min":36,"x_max":742,"o":"m 703 825 l 261 825 l 261 615 l 394 617 q 647 533 551 617 q 742 321 742 450 q 644 83 742 172 q 382 -6 546 -6 q 202 25 296 -6 q 36 106 108 56 l 101 239 q 364 136 224 136 q 513 183 458 136 q 567 311 567 229 q 513 428 567 385 q 365 471 458 471 q 110 458 228 471 l 110 972 l 701 972 l 703 825 z "},"6":{"ha":854,"x_min":67,"x_max":804,"o":"m 486 979 q 776 906 646 979 l 713 782 q 497 843 618 843 q 291 749 360 843 q 226 492 222 654 q 492 629 304 629 q 720 545 636 629 q 804 319 804 461 q 711 81 804 169 q 463 -7 618 -7 q 172 118 278 -7 q 67 467 67 243 q 181 840 67 700 q 486 979 294 979 m 461 500 q 308 447 365 500 q 253 315 251 393 q 303 190 251 244 q 454 135 356 135 q 598 184 544 135 q 651 321 651 233 q 601 452 651 404 q 461 500 550 500 z "},"7":{"ha":792,"x_min":51,"x_max":758,"o":"m 758 847 l 371 0 l 197 0 l 575 825 l 197 825 l 196 689 l 51 689 l 51 972 l 758 972 l 758 847 z "},"8":{"ha":869,"x_min":61,"x_max":810,"o":"m 197 913 q 241 946 197 913 q 435 979 285 979 q 673 912 585 979 q 761 728 761 844 q 723 604 761 658 q 617 519 685 550 q 758 425 707 490 q 810 272 810 360 q 709 68 810 143 q 435 -7 608 -7 q 162 67 263 -7 q 61 269 61 142 q 115 424 61 358 q 261 519 168 490 q 110 733 110 589 q 197 913 110 847 m 435 861 q 298 824 347 861 q 249 718 249 786 q 298 613 249 650 q 435 576 347 576 q 572 613 524 576 q 621 718 621 650 q 572 824 621 786 q 435 861 524 861 m 435 449 q 274 406 332 449 q 217 288 217 364 q 274 165 217 208 q 435 122 331 122 q 597 165 539 122 q 654 288 654 208 q 597 406 654 364 q 435 449 539 449 z "},"9":{"ha":854,"x_min":58,"x_max":796,"o":"m 376 -7 q 86 67 217 -7 l 150 190 q 365 129 244 129 q 572 224 503 129 q 636 481 640 318 q 371 343 558 343 q 142 427 225 343 q 58 653 58 511 q 151 891 58 803 q 400 979 244 979 q 690 854 585 979 q 796 506 796 729 q 682 133 796 272 q 376 -7 568 -7 m 401 472 q 554 526 497 472 q 610 657 611 579 q 559 783 611 728 q 408 838 507 838 q 265 788 318 838 q 211 651 211 739 q 262 520 211 568 q 401 472 313 472 z "}," ":{"ha":358,"x_min":0,"x_max":0,"o":""},"!":{"ha":292,"x_min":79,"x_max":254,"o":"m 242 721 l 217 310 l 115 310 l 90 721 l 90 960 l 242 960 l 242 721 m 104 145 q 117 158 104 145 q 167 171 129 171 q 229 145 204 171 q 254 81 254 119 q 229 14 254 40 q 167 -12 204 -12 q 104 14 129 -12 q 79 81 79 40 q 104 145 79 119 z "},"\"":{"ha":503,"x_min":83,"x_max":419,"o":"m 206 631 l 83 631 l 83 972 l 206 972 l 206 631 m 419 631 l 297 631 l 297 972 l 419 972 l 419 631 z "},"#":{"ha":1007,"x_min":38,"x_max":967,"o":"m 758 604 l 728 360 l 922 360 l 911 240 l 714 240 l 683 0 l 567 0 l 596 240 l 350 240 l 319 0 l 203 0 l 232 240 l 38 240 l 49 360 l 247 360 l 276 604 l 83 604 l 94 724 l 292 724 l 322 972 l 440 972 l 410 724 l 656 724 l 686 972 l 804 972 l 774 724 l 967 724 l 957 604 l 758 604 m 640 604 l 394 604 l 364 360 l 611 360 l 640 604 z "},"$":{"ha":863,"x_min":36,"x_max":800,"o":"m 504 818 l 504 561 q 613 524 572 540 q 703 474 653 507 q 776 392 753 442 q 800 275 800 343 q 719 88 800 161 q 504 -1 639 14 l 504 -197 l 382 -197 l 382 -3 q 36 149 182 14 l 107 290 q 382 153 232 175 l 382 431 q 297 458 329 446 q 222 493 265 469 q 153 543 178 517 q 111 613 129 569 q 93 708 93 656 q 171 889 93 818 q 382 975 249 960 l 382 1158 l 504 1158 l 504 976 q 788 879 665 961 l 719 735 q 504 818 614 799 m 382 821 q 276 724 276 803 q 382 603 276 644 l 382 821 m 504 393 l 504 154 q 618 267 618 178 q 504 393 618 349 z "},"%":{"ha":1351,"x_min":53,"x_max":1299,"o":"m 122 898 q 156 936 122 898 q 310 975 190 975 q 498 898 429 975 q 567 686 567 821 q 498 472 567 550 q 310 394 429 394 q 122 472 190 394 q 53 686 53 550 q 122 898 53 821 m 236 0 l 951 972 l 1104 972 l 390 0 l 236 0 m 422 830 q 402 855 422 830 q 310 881 382 881 q 199 830 238 881 q 160 686 160 779 q 199 540 160 592 q 310 489 238 489 q 422 541 382 489 q 461 686 461 593 q 422 830 461 779 m 853 499 q 888 538 853 499 q 1042 576 922 576 q 1230 499 1161 576 q 1299 288 1299 422 q 1230 74 1299 151 q 1042 -3 1161 -3 q 853 74 922 -3 q 785 288 785 151 q 853 499 785 422 m 1153 432 q 1134 458 1153 432 q 1042 483 1114 483 q 931 432 969 483 q 892 288 892 381 q 931 142 892 193 q 1042 92 969 92 q 1153 143 1114 92 q 1193 288 1193 194 q 1153 432 1193 381 z "},"&":{"ha":921,"x_min":79,"x_max":911,"o":"m 829 -26 l 678 122 q 385 -7 542 -7 q 167 71 254 -7 q 79 265 79 149 q 135 421 79 360 q 289 535 190 482 q 196 760 196 660 q 266 918 196 857 q 449 979 336 979 q 626 922 557 979 q 694 775 694 865 q 676 688 694 728 q 619 615 657 647 q 547 560 582 582 q 458 510 513 539 q 663 299 528 431 q 750 474 713 374 l 854 396 q 753 211 808 286 l 911 57 l 829 -26 m 322 761 q 394 589 322 688 q 524 674 479 633 q 568 774 568 715 q 536 851 568 822 q 450 879 504 879 q 358 846 393 879 q 322 761 322 813 m 390 114 q 590 208 493 114 q 354 454 425 374 q 249 374 286 415 q 211 278 211 333 q 263 160 211 206 q 390 114 314 114 z "},"'":{"ha":289,"x_min":83,"x_max":206,"o":"m 206 631 l 83 631 l 83 972 l 206 972 l 206 631 z "},"(":{"ha":443,"x_min":107,"x_max":421,"o":"m 276 1031 l 421 1031 q 257 429 257 775 q 421 -172 257 83 l 276 -172 q 107 429 107 72 q 276 1031 107 786 z "},")":{"ha":479,"x_min":165,"x_max":479,"o":"m 165 1031 l 310 1031 q 479 429 479 786 q 310 -172 479 72 l 165 -172 q 329 429 329 83 q 165 1031 329 775 z "},"*":{"ha":483,"x_min":35,"x_max":447,"o":"m 282 710 l 283 567 l 200 567 l 201 710 l 78 638 l 35 714 l 160 785 l 35 853 l 78 932 l 201 858 l 200 1001 l 283 1001 l 282 858 l 406 931 l 447 853 l 322 785 l 447 714 l 406 636 l 282 710 z "},"+":{"ha":692,"x_min":49,"x_max":643,"o":"m 643 396 l 399 396 l 399 153 l 294 153 l 294 396 l 49 396 l 49 506 l 294 506 l 294 749 l 399 749 l 399 506 l 643 506 l 643 396 z "},",":{"ha":297,"x_min":50,"x_max":236,"o":"m 151 168 q 211 144 186 168 q 236 79 236 119 q 211 6 236 42 l 132 -114 l 50 -114 l 103 7 q 65 79 65 32 q 90 143 65 118 q 151 168 114 168 z "},"-":{"ha":511,"x_min":85,"x_max":426,"o":"m 426 368 l 85 368 l 85 478 l 426 478 l 426 368 z "},".":{"ha":303,"x_min":64,"x_max":239,"o":"m 89 145 q 101 158 89 145 q 151 171 114 171 q 214 145 189 171 q 239 81 239 119 q 214 14 239 40 q 151 -12 189 -12 q 89 14 114 -12 q 64 81 64 40 q 89 145 64 119 z "},"/":{"ha":460,"x_min":-29,"x_max":547,"o":"m 107 -162 l -29 -162 l 411 1133 l 547 1133 l 107 -162 z "},":":{"ha":294,"x_min":64,"x_max":239,"o":"m 89 558 q 101 570 89 558 q 151 583 114 583 q 214 558 189 583 q 239 493 239 532 q 214 426 239 453 q 151 400 189 400 q 89 426 114 400 q 64 493 64 453 q 89 558 64 532 m 89 145 q 101 158 89 145 q 151 171 114 171 q 214 145 189 171 q 239 81 239 119 q 214 14 239 40 q 151 -12 189 -12 q 89 14 114 -12 q 64 81 64 40 q 89 145 64 119 z "},";":{"ha":300,"x_min":50,"x_max":239,"o":"m 214 426 q 201 413 214 426 q 151 400 189 400 q 89 426 114 400 q 64 493 64 453 q 89 558 64 532 q 151 583 114 583 q 214 558 189 583 q 239 493 239 532 q 214 426 239 453 m 151 168 q 211 144 186 168 q 236 79 236 119 q 211 6 236 42 l 132 -114 l 50 -114 l 103 7 q 65 79 65 32 q 90 143 65 118 q 151 168 114 168 z "},"<":{"ha":692,"x_min":49,"x_max":643,"o":"m 643 657 l 156 453 l 643 247 l 643 124 l 49 382 l 49 522 l 643 781 l 643 657 z "},"=":{"ha":692,"x_min":49,"x_max":643,"o":"m 643 542 l 49 542 l 49 651 l 643 651 l 643 542 m 643 250 l 49 250 l 49 360 l 643 360 l 643 250 z "},">":{"ha":692,"x_min":49,"x_max":643,"o":"m 49 254 l 536 458 l 49 664 l 49 788 l 643 529 l 643 389 l 49 131 l 49 254 z "},"?":{"ha":615,"x_min":7,"x_max":572,"o":"m 132 688 l 7 689 q 88 893 11 821 q 294 965 164 965 q 497 905 422 965 q 572 733 572 844 q 549 624 572 672 q 494 544 526 576 q 431 482 463 513 q 376 410 399 451 q 353 317 353 368 l 231 317 q 251 426 231 378 q 299 504 271 474 q 355 563 326 535 q 403 627 383 590 q 424 710 424 664 q 385 799 424 768 q 281 829 347 829 q 132 688 139 829 m 228 145 q 240 158 228 145 q 290 171 253 171 q 353 145 328 171 q 378 81 378 119 q 353 14 378 40 q 290 -12 328 -12 q 228 14 253 -12 q 203 81 203 40 q 228 145 203 119 z "},"@":{"ha":1353,"x_min":47,"x_max":1306,"o":"m 685 975 q 1129 806 953 975 q 1306 378 1306 636 q 1232 127 1306 222 q 1040 32 1158 32 q 879 144 901 32 l 876 172 q 638 49 792 49 q 412 140 507 49 q 317 374 317 232 q 401 610 317 514 q 622 706 486 706 q 765 669 703 706 q 842 601 826 632 l 842 692 l 992 692 l 992 207 q 1056 132 992 132 q 1147 201 1108 132 q 1186 374 1186 269 q 1049 724 1186 585 q 685 863 911 863 q 317 719 468 863 q 167 371 167 576 q 310 35 167 168 q 667 -97 453 -97 q 935 -15 819 -97 l 992 -117 q 840 -186 932 -160 q 667 -212 747 -212 q 224 -46 401 -212 q 47 371 47 121 q 231 801 47 626 q 685 975 415 975 m 651 567 q 527 513 575 567 q 479 381 479 460 q 528 242 479 299 q 654 185 576 185 q 783 240 735 185 q 832 379 832 296 q 782 513 832 460 q 651 567 732 567 z "},"A":{"ha":1025,"x_min":1,"x_max":1024,"o":"m 756 219 l 265 219 l 172 0 l 1 0 l 431 972 l 599 972 l 1024 0 l 849 0 l 756 219 m 693 365 l 510 797 l 326 365 l 693 365 z "},"B":{"ha":981,"x_min":128,"x_max":914,"o":"m 128 972 l 550 972 q 789 908 701 972 q 876 729 876 843 q 831 590 876 647 q 706 513 785 532 q 858 431 803 496 q 914 267 914 365 q 819 71 914 142 q 560 0 725 0 l 128 0 l 128 972 m 292 826 l 292 569 l 542 569 q 664 604 619 569 q 708 700 708 639 q 665 794 708 761 q 542 826 621 826 l 292 826 m 292 425 l 292 146 l 542 146 q 692 183 639 146 q 746 288 746 219 q 692 388 746 351 q 542 425 638 425 l 292 425 z "},"C":{"ha":968,"x_min":47,"x_max":929,"o":"m 558 976 q 759 937 661 976 q 928 826 857 897 l 832 707 q 707 797 779 764 q 561 831 635 831 q 315 731 415 831 q 214 489 214 632 q 315 245 214 344 q 561 146 415 146 q 832 261 713 146 l 929 153 q 754 36 854 79 q 553 -7 654 -7 q 193 135 339 -7 q 47 488 47 278 q 195 835 47 694 q 558 976 343 976 z "},"D":{"ha":1076,"x_min":128,"x_max":1029,"o":"m 128 972 l 526 972 q 887 835 744 972 q 1029 486 1029 697 q 886 138 1029 275 q 522 0 743 0 l 128 0 l 128 972 m 292 825 l 292 147 l 531 147 q 769 242 674 147 q 864 485 864 338 q 766 728 864 632 q 524 825 668 825 l 292 825 z "},"E":{"ha":911,"x_min":128,"x_max":839,"o":"m 822 825 l 292 825 l 292 563 l 767 563 l 767 415 l 292 415 l 292 147 l 839 147 l 839 0 l 128 0 l 128 972 l 822 972 l 822 825 z "},"F":{"ha":799,"x_min":128,"x_max":781,"o":"m 779 825 l 292 825 l 292 544 l 733 544 l 733 399 l 292 399 l 292 0 l 128 0 l 128 972 l 781 972 l 779 825 z "},"G":{"ha":1040,"x_min":47,"x_max":942,"o":"m 793 478 l 936 478 l 936 119 q 759 28 861 63 q 558 -7 657 -7 q 195 135 343 -7 q 47 486 47 278 q 197 835 47 694 q 568 976 347 976 q 770 940 671 976 q 942 840 869 903 l 849 719 q 568 831 729 831 q 317 731 419 831 q 214 486 214 631 q 317 240 214 340 q 569 140 421 140 q 793 207 682 140 l 793 478 z "},"H":{"ha":1099,"x_min":128,"x_max":971,"o":"m 971 0 l 807 0 l 807 403 l 292 403 l 292 0 l 128 0 l 128 972 l 292 972 l 292 550 l 807 550 l 807 972 l 971 972 l 971 0 z "},"I":{"ha":419,"x_min":128,"x_max":292,"o":"m 292 0 l 128 0 l 128 972 l 292 972 l 292 0 z "},"J":{"ha":693,"x_min":-3,"x_max":586,"o":"m 586 972 l 586 300 q 506 74 586 154 q 283 -7 425 -7 q -3 133 111 -7 l 75 258 q 282 151 174 151 q 385 191 349 151 q 421 306 421 231 l 421 825 l 85 825 l 85 972 l 586 972 z "},"K":{"ha":997,"x_min":128,"x_max":974,"o":"m 776 0 l 457 429 l 292 247 l 292 0 l 128 0 l 128 972 l 292 972 l 292 469 l 756 972 l 949 972 l 572 557 l 974 0 l 776 0 z "},"L":{"ha":742,"x_min":128,"x_max":713,"o":"m 292 149 l 713 149 l 713 0 l 128 0 l 128 972 l 292 972 l 292 149 z "},"M":{"ha":1285,"x_min":128,"x_max":1156,"o":"m 1156 0 l 1004 0 l 1003 726 l 696 101 l 589 101 l 282 726 l 282 0 l 128 0 l 128 972 l 322 972 l 643 326 l 963 972 l 1156 972 l 1156 0 z "},"N":{"ha":1100,"x_min":128,"x_max":971,"o":"m 971 0 l 810 0 l 292 697 l 292 0 l 128 0 l 128 972 l 289 972 l 810 274 l 810 972 l 971 972 l 971 0 z "},"O":{"ha":1125,"x_min":47,"x_max":1078,"o":"m 196 835 q 270 906 196 835 q 563 976 344 976 q 929 835 781 976 q 1078 486 1078 694 q 929 135 1078 278 q 563 -7 781 -7 q 196 135 344 -7 q 47 486 47 278 q 196 835 47 694 m 564 829 q 317 730 419 829 q 214 486 214 631 q 317 241 214 342 q 564 140 421 140 q 808 241 707 140 q 910 486 910 342 q 808 730 910 631 q 564 829 707 829 z "},"P":{"ha":935,"x_min":128,"x_max":900,"o":"m 128 972 l 515 972 q 799 885 699 972 q 900 640 900 799 q 799 384 900 475 q 515 293 699 293 l 292 293 l 292 0 l 128 0 l 128 972 m 292 825 l 292 440 l 508 440 q 743 636 743 440 q 508 825 743 825 l 292 825 z "},"Q":{"ha":1146,"x_min":47,"x_max":1135,"o":"m 1069 8 l 1135 -107 q 871 -214 1014 -214 q 700 -160 781 -214 q 561 -7 619 -106 q 195 136 343 -6 q 47 486 47 278 q 196 835 47 694 q 563 976 344 976 q 929 835 781 976 q 1078 486 1078 694 q 981 194 1078 321 q 728 18 885 67 q 890 -72 811 -72 q 1069 8 967 -72 m 317 730 q 265 680 317 730 q 214 486 214 631 q 317 241 214 342 q 564 140 421 140 q 808 241 707 140 q 910 486 910 342 q 808 730 910 631 q 564 829 707 829 q 317 730 419 829 z "},"R":{"ha":1004,"x_min":128,"x_max":931,"o":"m 744 0 l 567 294 q 522 293 553 293 l 292 293 l 292 0 l 128 0 l 128 972 l 522 972 q 811 885 708 972 q 914 640 914 799 q 862 443 914 524 q 713 325 810 363 l 931 0 l 744 0 m 292 440 l 522 440 q 758 636 758 440 q 522 825 758 825 l 292 825 l 292 440 z "},"S":{"ha":864,"x_min":36,"x_max":800,"o":"m 447 979 q 788 879 636 979 l 719 735 q 435 825 571 825 q 319 799 361 825 q 276 724 276 772 q 315 641 276 675 q 413 591 354 607 q 539 551 471 575 q 665 499 607 526 q 762 415 724 472 q 800 275 800 357 q 698 71 800 147 q 433 -6 596 -6 q 218 36 322 -6 q 36 149 114 78 l 107 290 q 269 185 181 222 q 436 149 357 149 q 570 180 522 149 q 618 267 618 211 q 579 351 618 317 q 482 401 540 385 q 356 440 424 417 q 229 488 288 463 q 132 571 171 514 q 93 708 93 628 q 190 906 93 832 q 447 979 288 979 z "},"T":{"ha":804,"x_min":13,"x_max":792,"o":"m 792 825 l 483 825 l 483 0 l 319 0 l 319 825 l 13 825 l 13 972 l 792 972 l 792 825 z "},"U":{"ha":1061,"x_min":108,"x_max":954,"o":"m 954 972 l 954 403 q 842 103 954 213 q 532 -7 729 -7 q 222 103 335 -7 q 108 403 108 213 l 108 972 l 272 972 l 272 403 q 342 210 272 281 q 533 140 413 140 q 722 210 653 140 q 790 403 790 279 l 790 972 l 954 972 z "},"V":{"ha":958,"x_min":4,"x_max":954,"o":"m 561 0 l 392 0 l 4 972 l 181 972 l 481 182 l 783 972 l 954 972 l 561 0 z "},"W":{"ha":1439,"x_min":4,"x_max":1453,"o":"m 1128 0 l 960 0 l 729 758 l 496 0 l 326 0 l 4 972 l 181 972 l 417 182 l 651 971 l 813 972 l 1049 182 l 1283 972 l 1453 972 l 1128 0 z "},"X":{"ha":961,"x_min":21,"x_max":932,"o":"m 578 506 l 932 0 l 736 0 l 474 367 l 213 0 l 21 0 l 375 499 l 46 972 l 236 972 l 474 635 l 713 972 l 904 972 l 578 506 z "},"Y":{"ha":885,"x_min":1,"x_max":883,"o":"m 526 324 l 526 0 l 364 0 l 364 318 l 1 972 l 167 972 l 444 499 l 717 972 l 883 972 l 526 324 z "},"Z":{"ha":925,"x_min":51,"x_max":872,"o":"m 865 854 l 274 147 l 872 147 l 872 0 l 51 0 l 51 118 l 644 825 l 69 825 l 69 972 l 865 972 l 865 854 z "},"[":{"ha":479,"x_min":128,"x_max":443,"o":"m 443 903 l 271 903 l 271 -44 l 443 -44 l 443 -172 l 128 -172 l 128 1031 l 443 1031 l 443 903 z "},"\\":{"ha":757,"x_min":181,"x_max":757,"o":"m 317 1133 l 757 -162 l 621 -162 l 181 1133 l 317 1133 z "},"]":{"ha":657,"x_min":214,"x_max":529,"o":"m 529 1031 l 529 -172 l 214 -172 l 214 -44 l 386 -44 l 386 903 l 214 903 l 214 1031 l 529 1031 z "},"^":{"ha":747,"x_min":44,"x_max":701,"o":"m 578 183 l 374 632 l 168 183 l 44 183 l 303 731 l 443 731 l 701 183 l 578 183 z "},"_":{"ha":786,"x_min":0,"x_max":786,"o":"m 786 -283 l 0 -283 l 0 -186 l 786 -186 l 786 -283 z "},"`":{"ha":486,"x_min":78,"x_max":389,"o":"m 389 846 l 247 846 l 78 982 l 242 1051 l 389 846 z "},"a":{"ha":814,"x_min":57,"x_max":718,"o":"m 561 0 l 561 90 q 317 -7 482 -7 q 128 58 199 -7 q 57 222 57 122 q 131 383 57 324 q 336 444 204 443 l 560 444 l 560 467 q 515 576 560 538 q 383 615 469 615 q 165 540 276 615 l 100 651 q 252 723 185 701 q 418 744 319 744 q 638 676 560 744 q 717 485 715 607 l 718 0 l 561 0 m 350 119 q 494 159 435 119 q 560 260 553 199 l 560 328 l 360 328 q 244 305 281 328 q 207 229 207 282 q 245 149 207 179 q 350 119 283 119 z "},"b":{"ha":944,"x_min":125,"x_max":896,"o":"m 543 744 q 798 640 700 744 q 896 367 896 535 q 800 97 896 200 q 546 -6 704 -6 q 285 128 368 -6 l 285 0 l 125 0 l 125 1031 l 285 1031 l 285 611 q 543 744 368 744 m 348 198 q 380 164 348 198 q 510 131 411 131 q 672 198 608 131 q 735 372 735 265 q 672 544 735 476 q 510 611 608 611 q 348 544 411 611 q 285 372 285 476 q 348 198 285 265 z "},"c":{"ha":783,"x_min":49,"x_max":735,"o":"m 421 744 q 726 624 621 744 l 639 521 q 428 604 556 606 q 270 538 332 604 q 208 368 208 472 q 270 198 208 264 q 428 132 332 132 q 646 221 569 132 l 735 132 q 421 -6 631 -6 q 152 98 256 -6 q 49 368 49 201 q 152 640 49 536 q 421 744 256 744 z "},"d":{"ha":947,"x_min":49,"x_max":822,"o":"m 822 1031 l 822 0 l 663 0 l 663 126 q 403 -7 581 -7 q 147 98 244 -7 q 49 372 49 203 q 146 642 49 539 q 400 746 243 746 q 663 611 578 746 l 663 1031 l 822 1031 m 273 194 q 305 160 273 194 q 436 126 336 126 q 599 194 536 126 q 663 367 663 261 q 599 542 663 474 q 436 610 536 610 q 273 542 336 610 q 208 367 210 474 q 273 194 210 261 z "},"e":{"ha":817,"x_min":49,"x_max":768,"o":"m 422 744 q 698 630 613 744 q 768 308 783 515 l 210 308 q 290 173 229 222 q 439 124 351 124 q 647 210 564 124 l 732 119 q 426 -6 618 -6 q 152 98 256 -6 q 49 368 49 201 q 153 639 49 535 q 422 744 257 743 m 207 425 l 629 425 q 569 565 625 514 q 424 617 514 617 q 278 565 336 617 q 207 425 221 514 z "},"f":{"ha":476,"x_min":51,"x_max":569,"o":"m 407 899 q 335 874 364 899 q 307 799 307 849 l 307 711 l 500 711 l 500 592 l 307 592 l 307 0 l 149 0 l 149 592 l 51 592 l 51 711 l 149 711 l 149 783 q 224 972 149 906 q 403 1038 299 1038 q 569 986 500 1038 l 508 864 q 407 899 461 899 z "},"g":{"ha":889,"x_min":49,"x_max":785,"o":"m 785 739 l 785 72 q 681 -180 785 -86 q 401 -274 576 -274 q 94 -176 238 -274 l 163 -61 q 394 -142 271 -142 q 563 -85 500 -142 q 626 68 626 -28 l 626 161 q 382 36 549 36 q 140 135 232 36 q 49 393 49 233 q 139 647 49 550 q 376 744 229 743 q 626 619 546 746 l 626 739 l 785 739 m 414 161 q 567 225 507 161 q 626 389 626 289 q 567 552 626 489 q 414 615 508 615 q 260 552 319 615 q 199 389 200 489 q 259 225 200 289 q 414 161 318 161 z "},"h":{"ha":929,"x_min":125,"x_max":833,"o":"m 558 744 q 760 669 688 744 q 833 460 833 593 l 833 0 l 674 0 l 674 415 q 626 547 674 499 q 496 594 579 594 q 342 528 399 593 q 285 364 285 464 l 285 0 l 125 0 l 125 1031 l 285 1031 l 285 594 q 558 744 361 744 z "},"i":{"ha":394,"x_min":104,"x_max":290,"o":"m 131 1020 q 144 1034 131 1020 q 197 1047 157 1047 q 264 1020 238 1047 q 290 950 290 993 q 264 881 290 908 q 197 854 238 854 q 131 881 157 854 q 104 950 104 908 q 131 1020 104 993 m 276 0 l 118 0 l 118 739 l 276 739 l 276 0 z "},"j":{"ha":399,"x_min":-118,"x_max":294,"o":"m 196 1047 q 267 1020 239 1047 q 294 950 294 993 q 267 881 294 908 q 196 853 239 853 q 126 881 154 853 q 99 950 99 908 q 126 1020 99 993 q 196 1047 154 1047 m 275 739 l 275 -21 q 204 -210 275 -144 q 36 -276 133 -276 q -118 -226 -50 -276 l -65 -103 q 29 -136 -18 -136 q 92 -111 68 -136 q 117 -36 117 -86 l 117 739 l 275 739 z "},"k":{"ha":826,"x_min":125,"x_max":815,"o":"m 410 339 l 285 207 l 285 0 l 125 0 l 125 1031 l 285 1031 l 285 408 l 611 739 l 794 739 l 521 453 l 815 0 l 626 0 l 410 339 z "},"l":{"ha":410,"x_min":125,"x_max":285,"o":"m 285 0 l 125 0 l 125 1031 l 285 1031 l 285 0 z "},"m":{"ha":1449,"x_min":118,"x_max":1353,"o":"m 1082 744 q 1281 668 1208 744 q 1353 460 1353 592 l 1353 0 l 1193 0 l 1193 415 q 1147 548 1193 500 q 1018 596 1100 596 q 870 528 925 593 q 815 365 815 464 l 815 0 l 656 0 l 656 415 q 609 548 656 500 q 482 596 563 596 q 332 528 388 593 q 276 365 276 464 l 276 0 l 118 0 l 118 739 l 276 739 l 276 596 q 544 744 350 744 q 709 698 643 744 q 801 567 775 651 q 1082 744 869 744 z "},"n":{"ha":921,"x_min":118,"x_max":825,"o":"m 550 744 q 752 669 679 744 q 825 460 825 593 l 825 0 l 665 0 l 665 415 q 618 547 665 499 q 488 594 571 594 q 342 538 399 593 q 278 393 286 482 l 278 0 l 118 0 l 118 739 l 278 739 l 278 597 q 550 744 353 744 z "},"o":{"ha":868,"x_min":49,"x_max":819,"o":"m 435 744 q 713 641 606 744 q 819 369 819 538 q 713 99 819 203 q 435 -6 606 -6 q 156 99 263 -6 q 49 369 49 203 q 156 641 49 538 q 435 744 263 744 m 435 607 q 272 540 335 607 q 208 368 208 474 q 272 194 208 261 q 435 128 335 128 q 597 194 535 128 q 660 368 660 261 q 597 540 660 474 q 435 607 533 607 z "},"p":{"ha":944,"x_min":125,"x_max":896,"o":"m 543 744 q 798 640 700 744 q 896 367 896 535 q 800 97 896 200 q 546 -6 704 -6 q 285 128 368 -6 l 285 -269 l 125 -269 l 125 739 l 285 739 l 285 611 q 543 744 368 744 m 348 198 q 380 164 348 198 q 510 131 411 131 q 672 198 608 131 q 735 372 735 265 q 672 544 735 476 q 510 611 608 611 q 348 544 411 611 q 285 372 285 476 q 348 198 285 265 z "},"q":{"ha":947,"x_min":49,"x_max":822,"o":"m 822 739 l 822 -269 l 663 -269 l 663 126 q 403 -7 581 -7 q 147 98 244 -7 q 49 372 49 203 q 146 642 49 539 q 400 746 243 746 q 663 611 578 746 l 663 739 l 822 739 m 273 194 q 305 160 273 194 q 436 126 336 126 q 599 194 536 126 q 663 367 663 261 q 599 542 663 474 q 436 610 536 610 q 273 542 336 610 q 208 367 210 474 q 273 194 210 261 z "},"r":{"ha":547,"x_min":118,"x_max":533,"o":"m 278 739 l 278 592 q 533 744 354 744 l 533 592 q 356 540 424 597 q 278 386 288 483 l 278 0 l 118 0 l 118 739 l 278 739 z "},"s":{"ha":653,"x_min":29,"x_max":610,"o":"m 339 746 q 597 671 492 746 l 539 553 q 326 618 433 618 q 218 544 218 618 q 258 485 218 508 q 356 445 299 461 q 472 408 414 429 q 569 338 529 386 q 610 214 610 289 q 528 51 610 107 q 326 -6 447 -6 q 163 22 243 -6 q 29 97 83 49 l 86 211 q 202 144 133 169 q 333 119 271 119 q 421 139 388 119 q 454 199 454 158 q 414 265 454 240 q 317 306 374 290 q 203 342 260 321 q 106 410 146 363 q 67 532 67 458 q 145 692 67 638 q 339 746 224 746 z "},"t":{"ha":565,"x_min":43,"x_max":536,"o":"m 496 169 l 536 47 q 354 -7 444 -7 q 206 47 264 -7 q 147 208 147 101 l 147 592 l 43 592 l 43 711 l 147 711 l 147 914 l 306 914 l 306 711 l 524 711 l 524 592 l 306 592 l 306 238 q 325 160 306 182 q 385 138 344 138 q 496 169 429 138 z "},"u":{"ha":907,"x_min":94,"x_max":789,"o":"m 789 739 l 789 0 l 629 0 l 629 144 q 365 -6 557 -3 q 167 71 239 -6 q 94 279 94 147 l 94 739 l 254 739 l 254 324 q 300 192 254 240 q 426 144 346 144 q 574 210 519 146 q 629 375 629 275 l 629 739 l 789 739 z "},"v":{"ha":729,"x_min":1,"x_max":736,"o":"m 453 0 l 288 0 l 1 739 l 168 739 l 374 157 l 576 739 l 736 739 l 453 0 z "},"w":{"ha":1240,"x_min":1,"x_max":1247,"o":"m 978 0 l 813 0 l 625 547 l 438 0 l 274 0 l 1 739 l 165 739 l 357 158 l 543 739 l 708 739 l 896 158 l 1085 739 l 1247 739 l 978 0 z "},"x":{"ha":769,"x_min":19,"x_max":746,"o":"m 386 486 l 554 739 l 729 739 l 492 379 l 746 0 l 563 0 l 386 271 l 197 0 l 19 0 l 281 379 l 38 739 l 221 739 l 386 486 z "},"y":{"ha":738,"x_min":-7,"x_max":744,"o":"m 744 739 l 408 -101 q 168 -276 340 -276 q -3 -214 72 -276 l 65 -90 q 161 -126 115 -126 q 274 -44 236 -126 l 299 11 l -7 739 l 158 739 l 379 179 l 585 739 l 744 739 z "},"z":{"ha":746,"x_min":63,"x_max":694,"o":"m 682 631 l 260 131 l 694 129 l 694 -1 l 63 0 l 63 108 l 485 608 l 75 608 l 75 739 l 682 738 l 682 631 z "},"{":{"ha":457,"x_min":50,"x_max":429,"o":"m 297 806 l 297 578 q 275 476 297 511 q 200 428 253 442 q 275 381 253 415 q 297 279 297 346 l 297 51 q 327 -24 297 -1 q 429 -47 357 -47 l 429 -175 l 369 -175 q 203 -135 253 -175 q 153 3 153 -94 l 153 289 q 139 345 153 328 q 93 363 125 363 l 50 363 l 50 494 l 93 494 q 139 512 125 494 q 153 568 153 529 l 153 856 q 203 992 153 951 q 369 1032 253 1032 l 429 1032 l 429 904 q 327 881 357 904 q 297 806 297 858 z "},"|":{"ha":374,"x_min":126,"x_max":247,"o":"m 247 -161 l 126 -161 l 126 1125 l 247 1125 l 247 -161 z "},"}":{"ha":558,"x_min":179,"x_max":558,"o":"m 558 494 l 558 363 l 515 363 q 469 345 483 363 q 456 289 456 328 l 456 3 q 406 -135 456 -94 q 239 -175 356 -175 l 179 -175 l 179 -47 q 281 -24 251 -47 q 311 51 311 -1 l 311 279 q 333 381 311 346 q 408 429 356 415 q 333 476 356 442 q 311 578 311 511 l 311 806 q 281 881 311 858 q 179 904 251 904 l 179 1032 l 239 1032 q 406 992 356 1032 q 456 856 456 951 l 456 568 q 469 512 456 529 q 515 494 483 494 l 558 494 z "},"~":{"ha":692,"x_min":92,"x_max":601,"o":"m 226 549 q 344 509 275 549 q 438 469 413 469 q 492 539 492 469 l 601 539 q 467 344 601 344 q 348 384 415 344 q 257 424 281 424 q 203 354 203 424 l 92 354 q 226 549 92 549 z "}," ":{"ha":358,"x_min":0,"x_max":0,"o":""},"¡":{"ha":290,"x_min":75,"x_max":250,"o":"m 225 592 q 213 580 225 592 q 163 567 200 567 q 100 592 125 567 q 75 657 75 618 q 100 724 75 697 q 163 750 125 750 q 225 724 200 750 q 250 657 250 697 q 225 592 250 618 m 88 18 l 113 428 l 214 428 l 239 18 l 239 -222 l 88 -222 l 88 18 z "},"¢":{"ha":783,"x_min":49,"x_max":735,"o":"m 646 221 l 735 132 q 481 -3 647 15 l 481 -197 l 360 -197 l 360 -1 q 134 118 219 18 q 49 368 49 218 q 134 620 49 519 q 360 740 219 721 l 360 950 l 481 950 l 481 742 q 726 624 638 725 l 639 521 q 481 601 575 588 l 481 136 q 646 221 585 149 m 249 513 q 229 483 249 513 q 208 368 208 453 q 249 223 208 283 q 360 142 290 163 l 360 594 q 249 513 290 574 z "},"£":{"ha":760,"x_min":51,"x_max":738,"o":"m 331 133 l 719 133 l 719 0 l 51 0 l 51 133 l 167 133 l 167 414 l 51 414 l 51 531 l 167 531 l 167 671 q 244 899 167 818 q 463 979 321 979 q 738 854 628 979 l 672 726 q 479 832 583 832 q 331 667 331 832 l 331 531 l 575 531 l 575 414 l 331 414 l 331 133 z "},"¤":{"ha":988,"x_min":49,"x_max":939,"o":"m 800 653 q 868 443 868 558 q 797 232 868 328 l 939 90 l 849 -6 l 701 140 q 493 79 607 79 q 286 140 381 79 l 139 -6 l 49 90 l 190 232 q 121 443 121 328 q 188 653 121 557 l 49 792 l 139 888 l 282 744 q 493 810 378 810 q 706 746 608 810 l 849 888 l 939 792 l 800 653 m 493 215 q 669 282 596 215 q 742 443 742 349 q 669 607 742 539 q 493 675 596 675 q 320 607 392 675 q 249 443 249 539 q 320 282 249 349 q 493 215 392 215 z "},"¥":{"ha":872,"x_min":1,"x_max":883,"o":"m 594 447 l 799 447 l 799 378 l 557 378 l 528 325 l 528 263 l 799 263 l 799 193 l 528 193 l 528 0 l 364 0 l 364 193 l 104 193 l 104 263 l 364 263 l 364 318 l 331 378 l 104 378 l 104 447 l 293 447 l 1 972 l 167 972 l 444 499 l 717 972 l 883 972 l 594 447 z "},"¦":{"ha":374,"x_min":126,"x_max":247,"o":"m 247 644 l 126 644 l 126 1125 l 247 1125 l 247 644 m 247 -161 l 126 -161 l 126 319 l 247 319 l 247 -161 z "},"§":{"ha":693,"x_min":29,"x_max":650,"o":"m 360 964 q 622 890 500 964 l 572 788 q 361 851 461 851 q 263 828 300 851 q 226 769 226 806 q 270 699 226 726 q 376 654 314 672 q 501 614 439 636 q 606 544 563 592 q 650 425 650 497 q 607 315 650 365 q 500 246 564 265 q 592 182 564 218 q 621 88 621 146 q 542 -60 621 -3 q 336 -118 464 -118 q 29 -12 158 -118 l 78 90 q 332 -4 197 -4 q 437 21 396 -4 q 478 83 478 46 q 435 153 478 125 q 330 200 392 182 q 206 240 268 218 q 101 310 144 263 q 58 426 58 357 q 103 538 58 492 q 228 603 149 583 q 119 672 150 635 q 88 764 88 708 q 163 908 88 853 q 360 964 238 964 m 336 522 q 234 499 271 522 q 197 438 197 476 q 248 358 197 389 q 374 326 299 326 q 474 351 439 326 q 508 415 508 375 q 460 492 508 463 q 336 522 411 522 z "},"¨":{"ha":539,"x_min":36,"x_max":450,"o":"m 60 1021 q 73 1033 60 1021 q 121 1046 85 1046 q 181 1021 157 1046 q 204 957 204 996 q 181 894 204 919 q 121 869 157 869 q 60 894 85 869 q 36 957 36 919 q 60 1021 36 996 m 306 1021 q 318 1033 306 1021 q 367 1046 331 1046 q 426 1021 403 1046 q 450 957 450 996 q 426 894 450 919 q 367 869 403 869 q 306 894 331 869 q 282 957 282 919 q 306 1021 282 996 z "},"©":{"ha":1035,"x_min":47,"x_max":988,"o":"m 184 817 q 252 887 184 817 q 518 957 321 957 q 851 819 715 957 q 988 486 988 681 q 850 152 988 292 q 515 13 713 13 q 183 151 319 13 q 47 483 47 289 q 184 817 47 678 m 518 874 q 240 759 353 874 q 126 483 126 644 q 239 209 126 322 q 515 96 351 96 q 794 210 681 96 q 908 486 908 325 q 795 760 908 647 q 518 874 682 874 m 347 654 q 383 688 347 654 q 525 722 419 722 q 707 649 631 722 l 658 590 q 526 649 600 649 q 407 601 456 649 q 358 486 358 554 q 407 369 358 417 q 526 321 456 321 q 658 376 600 321 l 707 322 q 522 244 626 244 q 347 314 418 244 q 275 485 275 383 q 347 654 275 586 z "},"ª":{"ha":535,"x_min":46,"x_max":465,"o":"m 275 1079 q 415 1038 365 1079 q 465 922 465 996 l 465 636 l 356 636 l 356 706 q 196 632 303 632 q 86 668 126 632 q 46 764 46 704 q 91 856 46 824 q 219 890 136 889 l 354 890 l 354 910 q 249 992 354 992 q 100 950 183 992 l 72 1028 q 275 1079 179 1079 m 233 707 q 354 775 318 707 l 354 833 l 242 833 q 151 774 151 833 q 174 725 151 743 q 233 707 196 707 z "},"«":{"ha":633,"x_min":32,"x_max":576,"o":"m 178 361 l 326 119 l 193 119 l 32 361 l 193 603 l 326 603 l 178 361 m 428 361 l 576 119 l 443 119 l 282 361 l 443 603 l 576 603 l 428 361 z "},"¬":{"ha":781,"x_min":49,"x_max":675,"o":"m 675 561 l 675 201 l 558 201 l 558 451 l 49 451 l 49 561 l 675 561 z "},"­":{"ha":511,"x_min":85,"x_max":426,"o":"m 426 368 l 85 368 l 85 478 l 426 478 l 426 368 z "},"®":{"ha":1035,"x_min":47,"x_max":988,"o":"m 184 817 q 252 887 184 817 q 518 957 321 957 q 851 819 715 957 q 988 486 988 681 q 850 152 988 292 q 515 13 713 13 q 183 151 319 13 q 47 483 47 289 q 184 817 47 678 m 515 96 q 794 210 681 96 q 908 486 908 325 q 795 760 908 647 q 518 874 682 874 q 240 759 353 874 q 126 483 126 644 q 239 209 126 322 q 515 96 351 96 m 718 572 q 619 421 718 460 l 728 264 l 636 264 l 549 406 l 528 406 l 418 406 l 418 264 l 339 264 l 339 733 l 528 733 q 669 692 619 733 q 718 572 718 650 m 418 472 l 528 472 q 613 498 582 472 q 643 571 643 524 q 613 642 643 617 q 528 667 582 667 l 418 667 l 418 472 z "},"¯":{"ha":486,"x_min":67,"x_max":421,"o":"m 421 890 l 67 890 l 67 1006 l 421 1006 l 421 890 z "},"°":{"ha":481,"x_min":113,"x_max":435,"o":"m 160 1078 q 183 1101 160 1078 q 274 1125 207 1125 q 388 1078 340 1125 q 435 965 435 1031 q 388 853 435 900 q 274 806 340 806 q 160 853 208 806 q 113 965 113 900 q 160 1078 113 1031 m 340 1028 q 326 1041 340 1028 q 274 1054 313 1054 q 208 1028 235 1054 q 181 965 181 1001 q 208 903 181 929 q 274 878 235 878 q 340 903 313 878 q 367 965 367 929 q 340 1028 367 1001 z "},"±":{"ha":692,"x_min":49,"x_max":643,"o":"m 643 597 l 643 489 l 399 489 l 399 251 l 294 251 l 294 489 l 49 489 l 49 597 l 294 597 l 294 835 l 399 835 l 399 597 l 643 597 m 49 139 l 643 139 l 643 28 l 49 28 l 49 139 z "},"²":{"ha":532,"x_min":39,"x_max":483,"o":"m 265 976 q 405 937 351 976 q 458 831 458 897 q 347 642 458 749 l 197 490 l 483 490 l 483 399 l 51 399 l 51 476 l 269 700 q 338 814 338 765 q 247 879 338 879 q 85 807 168 879 l 39 893 q 265 976 149 976 z "},"³":{"ha":493,"x_min":15,"x_max":444,"o":"m 251 735 l 282 732 q 400 684 356 725 q 444 576 444 643 q 384 444 444 496 q 224 393 324 393 q 15 457 103 393 l 64 549 q 215 482 131 482 q 300 507 269 482 q 331 575 331 532 q 214 661 331 661 l 128 661 l 128 725 l 283 883 l 43 883 l 43 969 l 417 969 l 417 901 l 251 735 z "},"´":{"ha":486,"x_min":86,"x_max":397,"o":"m 397 981 l 228 844 l 86 844 l 233 1050 l 397 981 z "},"µ":{"ha":938,"x_min":125,"x_max":819,"o":"m 819 739 l 819 0 l 660 0 l 660 144 q 396 -6 588 -3 q 285 13 339 -6 l 285 -269 l 125 -269 l 125 739 l 285 739 l 285 324 q 331 192 285 240 q 457 144 376 144 q 605 210 550 146 q 660 375 660 275 l 660 739 l 819 739 z "},"¶":{"ha":854,"x_min":-1,"x_max":726,"o":"m 726 -151 l 604 -151 l 604 931 l 422 931 l 422 -151 l 301 -151 l 301 494 l 258 494 q 131 520 185 494 q 51 588 78 546 q 11 672 24 629 q -1 757 -1 714 q 76 951 -1 872 q 311 1031 154 1031 l 726 1031 l 726 -151 z "},"·":{"ha":294,"x_min":64,"x_max":231,"o":"m 88 462 q 99 474 88 462 q 147 486 111 486 q 207 462 183 486 q 231 399 231 438 q 207 336 231 361 q 147 311 183 311 q 88 336 111 311 q 64 399 64 361 q 88 462 64 438 z "},"¸":{"ha":486,"x_min":108,"x_max":378,"o":"m 321 15 l 281 -69 q 351 -106 325 -78 q 378 -179 378 -135 q 335 -275 378 -239 q 231 -311 293 -311 q 108 -272 161 -311 l 139 -197 q 219 -225 175 -225 q 266 -208 249 -225 q 283 -168 283 -190 q 266 -131 283 -146 q 217 -115 249 -115 q 168 -122 193 -115 l 226 15 l 321 15 z "},"¹":{"ha":364,"x_min":22,"x_max":254,"o":"m 138 399 l 138 876 l 22 876 l 22 972 l 254 972 l 254 399 l 138 399 z "},"º":{"ha":565,"x_min":42,"x_max":524,"o":"m 108 1017 q 142 1047 108 1017 q 282 1078 175 1078 q 456 1017 389 1078 q 524 856 524 956 q 456 694 524 756 q 282 633 389 633 q 108 694 175 633 q 42 856 42 756 q 108 1017 42 956 m 374 950 q 356 968 374 950 q 282 986 339 986 q 190 950 225 986 q 154 854 154 914 q 190 758 154 794 q 282 722 225 722 q 374 758 339 722 q 408 854 408 794 q 374 950 408 914 z "},"»":{"ha":650,"x_min":106,"x_max":650,"o":"m 254 363 l 106 604 l 239 604 l 400 363 l 239 121 l 106 121 l 254 363 m 504 363 l 356 604 l 489 604 l 650 363 l 489 121 l 356 121 l 504 363 z "},"¼":{"ha":1135,"x_min":22,"x_max":1104,"o":"m 138 399 l 138 876 l 22 876 l 22 972 l 254 972 l 254 399 l 138 399 m 69 0 l 785 972 l 938 972 l 224 0 l 69 0 m 910 221 l 910 363 l 1019 363 l 1019 221 l 1104 221 l 1104 135 l 1019 135 l 1019 0 l 910 0 l 910 135 l 626 135 l 626 217 l 825 574 l 936 574 l 743 221 l 910 221 z "},"½":{"ha":1165,"x_min":22,"x_max":1117,"o":"m 138 399 l 138 876 l 22 876 l 22 972 l 254 972 l 254 399 l 138 399 m 69 0 l 785 972 l 938 972 l 224 0 l 69 0 m 899 578 q 1038 538 985 578 q 1092 432 1092 499 q 981 243 1092 350 l 831 93 l 1117 93 l 1117 0 l 685 0 l 685 79 l 903 301 q 971 417 971 369 q 947 465 971 447 q 881 482 924 482 q 718 410 801 482 l 672 494 q 899 578 779 578 z "},"¾":{"ha":1219,"x_min":15,"x_max":1190,"o":"m 156 0 l 871 972 l 1024 972 l 310 0 l 156 0 m 251 735 l 282 732 q 400 684 356 725 q 444 576 444 643 q 384 444 444 496 q 224 393 324 393 q 15 457 103 393 l 64 549 q 215 482 131 482 q 300 507 269 482 q 331 575 331 532 q 214 661 331 661 l 128 661 l 128 725 l 283 883 l 43 883 l 43 969 l 417 969 l 417 901 l 251 735 m 996 221 l 996 363 l 1106 363 l 1106 221 l 1190 221 l 1190 135 l 1106 135 l 1106 0 l 996 0 l 996 135 l 713 135 l 713 217 l 911 574 l 1022 574 l 829 221 l 996 221 z "},"¿":{"ha":615,"x_min":43,"x_max":608,"o":"m 388 592 q 375 580 388 592 q 325 567 363 567 q 263 592 288 567 q 238 657 238 618 q 263 724 238 697 q 325 750 288 750 q 388 724 363 750 q 413 657 413 697 q 388 592 413 618 m 483 50 l 608 49 q 528 -155 604 -82 q 321 -228 451 -228 q 118 -167 193 -228 q 43 4 43 -107 q 66 113 43 65 q 121 193 89 161 q 185 256 153 225 q 240 328 217 286 q 263 421 263 369 l 385 421 q 365 312 385 360 q 317 233 344 264 q 260 176 289 203 q 212 112 232 149 q 192 29 192 75 q 230 -61 192 -31 q 335 -92 268 -92 q 442 -56 403 -92 q 483 50 481 -19 z "},"À":{"ha":1025,"x_min":1,"x_max":1024,"o":"m 457 1079 l 288 1215 l 451 1285 l 599 1079 l 457 1079 m 756 219 l 265 219 l 172 0 l 1 0 l 431 972 l 599 972 l 1024 0 l 849 0 l 756 219 m 693 365 l 510 797 l 326 365 l 693 365 z "},"Á":{"ha":1025,"x_min":1,"x_max":1024,"o":"m 561 1078 l 419 1078 l 567 1283 l 731 1214 l 561 1078 m 756 219 l 265 219 l 172 0 l 1 0 l 431 972 l 599 972 l 1024 0 l 849 0 l 756 219 m 693 365 l 510 797 l 326 365 l 693 365 z "},"Â":{"ha":1025,"x_min":1,"x_max":1024,"o":"m 426 1082 l 296 1082 l 439 1278 l 586 1278 l 729 1082 l 599 1082 l 513 1204 l 426 1082 m 756 219 l 265 219 l 172 0 l 1 0 l 431 972 l 599 972 l 1024 0 l 849 0 l 756 219 m 693 365 l 510 797 l 326 365 l 693 365 z "},"Ã":{"ha":1025,"x_min":1,"x_max":1024,"o":"m 443 1172 q 392 1104 392 1172 l 289 1104 q 417 1286 289 1286 q 510 1248 458 1286 q 582 1210 563 1210 q 635 1278 635 1210 l 736 1278 q 610 1096 736 1096 q 513 1134 564 1096 q 443 1172 463 1172 m 756 219 l 265 219 l 172 0 l 1 0 l 431 972 l 599 972 l 1024 0 l 849 0 l 756 219 m 693 365 l 510 797 l 326 365 l 693 365 z "},"Ä":{"ha":1025,"x_min":1,"x_max":1024,"o":"m 450 1128 q 438 1115 450 1128 q 390 1103 426 1103 q 330 1128 354 1103 q 306 1190 306 1153 q 330 1254 306 1229 q 390 1279 354 1279 q 450 1254 426 1279 q 474 1190 474 1229 q 450 1128 474 1153 m 696 1128 q 684 1115 696 1128 q 636 1103 672 1103 q 576 1128 600 1103 q 551 1190 551 1153 q 576 1254 551 1229 q 636 1279 600 1279 q 696 1254 672 1279 q 719 1190 719 1229 q 696 1128 719 1153 m 756 219 l 265 219 l 172 0 l 1 0 l 431 972 l 599 972 l 1024 0 l 849 0 l 756 219 m 693 365 l 510 797 l 326 365 l 693 365 z "},"Å":{"ha":1025,"x_min":1,"x_max":1024,"o":"m 756 219 l 265 219 l 172 0 l 1 0 l 417 939 q 346 1075 346 989 q 396 1194 346 1144 q 515 1244 446 1244 q 636 1194 586 1244 q 686 1075 686 1144 q 614 938 686 989 l 1024 0 l 849 0 l 756 219 m 515 1167 q 448 1140 476 1167 q 419 1075 419 1113 q 447 1011 419 1038 q 515 985 475 985 q 584 1011 556 985 q 613 1075 613 1038 q 584 1140 613 1113 q 515 1167 556 1167 m 693 365 l 510 797 l 326 365 l 693 365 z "},"Æ":{"ha":1461,"x_min":1,"x_max":1388,"o":"m 1388 147 l 1388 0 l 678 0 l 678 240 l 308 240 l 172 0 l 1 0 l 565 972 l 1371 972 l 1371 825 l 840 825 l 840 561 l 1317 561 l 1317 415 l 840 415 l 840 147 l 1388 147 m 678 368 l 678 836 l 644 836 l 381 368 l 678 368 z "},"Ç":{"ha":968,"x_min":47,"x_max":929,"o":"m 600 -4 l 569 -69 q 640 -106 614 -78 q 667 -179 667 -135 q 624 -275 667 -239 q 519 -311 582 -311 q 397 -272 450 -311 l 428 -197 q 508 -225 464 -225 q 555 -208 538 -225 q 572 -168 572 -190 q 555 -131 572 -146 q 506 -115 538 -115 q 457 -122 482 -115 l 507 -6 q 178 151 310 11 q 47 488 47 290 q 195 835 47 694 q 558 976 343 976 q 759 937 661 976 q 928 826 857 897 l 832 707 q 707 797 779 764 q 561 831 635 831 q 315 731 415 831 q 214 489 214 632 q 315 245 214 344 q 561 146 415 146 q 832 261 713 146 l 929 153 q 600 -4 789 15 z "},"È":{"ha":911,"x_min":128,"x_max":839,"o":"m 564 1079 l 422 1079 l 253 1215 l 417 1285 l 564 1079 m 822 825 l 292 825 l 292 563 l 767 563 l 767 415 l 292 415 l 292 147 l 839 147 l 839 0 l 128 0 l 128 972 l 822 972 l 822 825 z "},"É":{"ha":911,"x_min":128,"x_max":839,"o":"m 696 1214 l 526 1078 l 385 1078 l 532 1283 l 696 1214 m 822 825 l 292 825 l 292 563 l 767 563 l 767 415 l 292 415 l 292 147 l 839 147 l 839 0 l 128 0 l 128 972 l 822 972 l 822 825 z "},"Ê":{"ha":911,"x_min":128,"x_max":839,"o":"m 694 1082 l 564 1082 l 478 1204 l 392 1082 l 261 1082 l 404 1278 l 551 1278 l 694 1082 m 822 825 l 292 825 l 292 563 l 767 563 l 767 415 l 292 415 l 292 147 l 839 147 l 839 0 l 128 0 l 128 972 l 822 972 l 822 825 z "},"Ë":{"ha":911,"x_min":128,"x_max":839,"o":"m 295 1254 q 307 1267 295 1254 q 356 1279 319 1279 q 415 1254 392 1279 q 439 1190 439 1229 q 415 1128 439 1153 q 356 1103 392 1103 q 295 1128 319 1103 q 271 1190 271 1153 q 295 1254 271 1229 m 541 1254 q 553 1267 541 1254 q 601 1279 565 1279 q 661 1254 638 1279 q 685 1190 685 1229 q 661 1128 685 1153 q 601 1103 638 1103 q 541 1128 565 1103 q 517 1190 517 1153 q 541 1254 517 1229 m 822 825 l 292 825 l 292 563 l 767 563 l 767 415 l 292 415 l 292 147 l 839 147 l 839 0 l 128 0 l 128 972 l 822 972 l 822 825 z "},"Ì":{"ha":419,"x_min":-17,"x_max":294,"o":"m 294 1079 l 153 1079 l -17 1215 l 147 1285 l 294 1079 m 292 0 l 128 0 l 128 972 l 292 972 l 292 0 z "},"Í":{"ha":419,"x_min":117,"x_max":428,"o":"m 428 1214 l 258 1078 l 117 1078 l 264 1283 l 428 1214 m 292 0 l 128 0 l 128 972 l 292 972 l 292 0 z "},"Î":{"ha":419,"x_min":-7,"x_max":426,"o":"m 426 1082 l 296 1082 l 210 1204 l 124 1082 l -7 1082 l 136 1278 l 283 1278 l 426 1082 m 292 0 l 128 0 l 128 972 l 292 972 l 292 0 z "},"Ï":{"ha":419,"x_min":3,"x_max":417,"o":"m 27 1254 q 39 1267 27 1254 q 88 1279 51 1279 q 147 1254 124 1279 q 171 1190 171 1229 q 147 1128 171 1153 q 88 1103 124 1103 q 27 1128 51 1103 q 3 1190 3 1153 q 27 1254 3 1229 m 273 1254 q 285 1267 273 1254 q 333 1279 297 1279 q 393 1254 369 1279 q 417 1190 417 1229 q 393 1128 417 1153 q 333 1103 369 1103 q 273 1128 297 1103 q 249 1190 249 1153 q 273 1254 249 1229 m 292 0 l 128 0 l 128 972 l 292 972 l 292 0 z "},"Ð":{"ha":1104,"x_min":0,"x_max":1057,"o":"m 156 972 l 554 972 q 915 835 772 972 q 1057 486 1057 697 q 913 138 1057 275 q 549 0 769 0 l 156 0 l 156 440 l 0 440 l 0 536 l 156 536 l 156 972 m 318 147 l 558 147 q 796 242 701 147 q 890 485 890 338 q 793 728 890 632 q 551 825 696 825 l 318 825 l 318 536 l 594 536 l 594 440 l 318 440 l 318 147 z "},"Ñ":{"ha":1100,"x_min":128,"x_max":971,"o":"m 454 1286 q 548 1248 496 1286 q 619 1210 600 1210 q 672 1278 672 1210 l 774 1278 q 647 1096 774 1096 q 551 1134 601 1096 q 481 1172 500 1172 q 429 1104 429 1172 l 326 1104 q 454 1286 326 1286 m 971 0 l 810 0 l 292 697 l 292 0 l 128 0 l 128 972 l 289 972 l 810 274 l 810 972 l 971 972 l 971 0 z "},"Ò":{"ha":1125,"x_min":47,"x_max":1078,"o":"m 642 1079 l 500 1079 l 331 1215 l 494 1285 l 642 1079 m 196 835 q 270 906 196 835 q 563 976 344 976 q 929 835 781 976 q 1078 486 1078 694 q 929 135 1078 278 q 563 -7 781 -7 q 196 135 344 -7 q 47 486 47 278 q 196 835 47 694 m 564 829 q 317 730 419 829 q 214 486 214 631 q 317 241 214 342 q 564 140 421 140 q 808 241 707 140 q 910 486 910 342 q 808 730 910 631 q 564 829 707 829 z "},"Ó":{"ha":1125,"x_min":47,"x_max":1078,"o":"m 774 1214 l 604 1078 l 463 1078 l 610 1283 l 774 1214 m 196 835 q 270 906 196 835 q 563 976 344 976 q 929 835 781 976 q 1078 486 1078 694 q 929 135 1078 278 q 563 -7 781 -7 q 196 135 344 -7 q 47 486 47 278 q 196 835 47 694 m 564 829 q 317 730 419 829 q 214 486 214 631 q 317 241 214 342 q 564 140 421 140 q 808 241 707 140 q 910 486 910 342 q 808 730 910 631 q 564 829 707 829 z "},"Ô":{"ha":1125,"x_min":47,"x_max":1078,"o":"m 772 1082 l 642 1082 l 556 1204 l 469 1082 l 339 1082 l 482 1278 l 629 1278 l 772 1082 m 196 835 q 270 906 196 835 q 563 976 344 976 q 929 835 781 976 q 1078 486 1078 694 q 929 135 1078 278 q 563 -7 781 -7 q 196 135 344 -7 q 47 486 47 278 q 196 835 47 694 m 564 829 q 317 730 419 829 q 214 486 214 631 q 317 241 214 342 q 564 140 421 140 q 808 241 707 140 q 910 486 910 342 q 808 730 910 631 q 564 829 707 829 z "},"Õ":{"ha":1125,"x_min":47,"x_max":1078,"o":"m 460 1286 q 553 1248 501 1286 q 625 1210 606 1210 q 678 1278 678 1210 l 779 1278 q 653 1096 779 1096 q 556 1134 607 1096 q 486 1172 506 1172 q 435 1104 435 1172 l 332 1104 q 460 1286 332 1286 m 196 835 q 270 906 196 835 q 563 976 344 976 q 929 835 781 976 q 1078 486 1078 694 q 929 135 1078 278 q 563 -7 781 -7 q 196 135 344 -7 q 47 486 47 278 q 196 835 47 694 m 564 829 q 317 730 419 829 q 214 486 214 631 q 317 241 214 342 q 564 140 421 140 q 808 241 707 140 q 910 486 910 342 q 808 730 910 631 q 564 829 707 829 z "},"Ö":{"ha":1125,"x_min":47,"x_max":1078,"o":"m 373 1254 q 385 1267 373 1254 q 433 1279 397 1279 q 493 1254 469 1279 q 517 1190 517 1229 q 493 1128 517 1153 q 433 1103 469 1103 q 373 1128 397 1103 q 349 1190 349 1153 q 373 1254 349 1229 m 619 1254 q 631 1267 619 1254 q 679 1279 643 1279 q 739 1254 715 1279 q 763 1190 763 1229 q 739 1128 763 1153 q 679 1103 715 1103 q 619 1128 643 1103 q 594 1190 594 1153 q 619 1254 594 1229 m 196 835 q 270 906 196 835 q 563 976 344 976 q 929 835 781 976 q 1078 486 1078 694 q 929 135 1078 278 q 563 -7 781 -7 q 196 135 344 -7 q 47 486 47 278 q 196 835 47 694 m 564 829 q 317 730 419 829 q 214 486 214 631 q 317 241 214 342 q 564 140 421 140 q 808 241 707 140 q 910 486 910 342 q 808 730 910 631 q 564 829 707 829 z "},"×":{"ha":692,"x_min":100,"x_max":593,"o":"m 422 451 l 593 279 l 519 201 l 347 375 l 174 201 l 100 279 l 271 451 l 100 622 l 174 700 l 347 526 l 519 700 l 593 622 l 422 451 z "},"Ø":{"ha":1125,"x_min":47,"x_max":1078,"o":"m 808 1126 l 747 946 q 987 770 896 894 q 1078 486 1078 646 q 929 135 1078 278 q 563 -7 781 -7 q 429 8 494 -7 l 368 -169 l 272 -169 l 343 38 q 128 217 208 97 q 47 486 47 338 q 196 835 47 694 q 563 976 344 976 q 658 968 611 976 l 711 1126 l 808 1126 m 214 486 q 263 310 214 390 q 392 185 311 231 l 610 826 q 564 829 579 829 q 317 730 419 829 q 214 486 214 631 m 564 140 q 808 241 707 140 q 910 486 910 342 q 851 678 910 593 q 697 803 793 764 l 476 151 q 564 140 521 140 z "},"Ù":{"ha":1061,"x_min":108,"x_max":954,"o":"m 617 1079 l 475 1079 l 306 1215 l 469 1285 l 617 1079 m 954 972 l 954 403 q 842 103 954 213 q 532 -7 729 -7 q 222 103 335 -7 q 108 403 108 213 l 108 972 l 272 972 l 272 403 q 342 210 272 281 q 533 140 413 140 q 722 210 653 140 q 790 403 790 279 l 790 972 l 954 972 z "},"Ú":{"ha":1061,"x_min":108,"x_max":954,"o":"m 749 1214 l 579 1078 l 438 1078 l 585 1283 l 749 1214 m 954 972 l 954 403 q 842 103 954 213 q 532 -7 729 -7 q 222 103 335 -7 q 108 403 108 213 l 108 972 l 272 972 l 272 403 q 342 210 272 281 q 533 140 413 140 q 722 210 653 140 q 790 403 790 279 l 790 972 l 954 972 z "},"Û":{"ha":1061,"x_min":108,"x_max":954,"o":"m 747 1082 l 617 1082 l 531 1204 l 444 1082 l 314 1082 l 457 1278 l 604 1278 l 747 1082 m 954 972 l 954 403 q 842 103 954 213 q 532 -7 729 -7 q 222 103 335 -7 q 108 403 108 213 l 108 972 l 272 972 l 272 403 q 342 210 272 281 q 533 140 413 140 q 722 210 653 140 q 790 403 790 279 l 790 972 l 954 972 z "},"Ü":{"ha":1061,"x_min":108,"x_max":954,"o":"m 348 1254 q 360 1267 348 1254 q 408 1279 372 1279 q 468 1254 444 1279 q 492 1190 492 1229 q 468 1128 492 1153 q 408 1103 444 1103 q 348 1128 372 1103 q 324 1190 324 1153 q 348 1254 324 1229 m 594 1254 q 606 1267 594 1254 q 654 1279 618 1279 q 714 1254 690 1279 q 738 1190 738 1229 q 714 1128 738 1153 q 654 1103 690 1103 q 594 1128 618 1103 q 569 1190 569 1153 q 594 1254 569 1229 m 954 972 l 954 403 q 842 103 954 213 q 532 -7 729 -7 q 222 103 335 -7 q 108 403 108 213 l 108 972 l 272 972 l 272 403 q 342 210 272 281 q 533 140 413 140 q 722 210 653 140 q 790 403 790 279 l 790 972 l 954 972 z "},"Ý":{"ha":885,"x_min":1,"x_max":883,"o":"m 490 1078 l 349 1078 l 496 1283 l 660 1214 l 490 1078 m 526 324 l 526 0 l 364 0 l 364 318 l 1 972 l 167 972 l 444 499 l 717 972 l 883 972 l 526 324 z "},"Þ":{"ha":943,"x_min":128,"x_max":907,"o":"m 292 835 l 496 835 q 800 750 693 835 q 907 510 907 665 q 800 258 907 347 q 496 169 693 169 l 292 169 l 292 0 l 128 0 l 128 972 l 292 972 l 292 835 m 292 306 l 489 306 q 740 506 740 306 q 489 699 740 699 l 292 699 l 292 306 z "},"ß":{"ha":908,"x_min":108,"x_max":842,"o":"m 463 1038 q 697 964 607 1038 q 786 769 786 890 q 742 622 786 688 q 625 529 699 557 q 783 449 724 510 q 842 292 842 388 q 742 81 842 163 q 476 0 642 0 l 406 0 l 406 124 l 489 124 q 632 169 578 124 q 686 288 686 215 q 624 408 686 365 q 454 451 561 451 l 436 451 l 436 574 q 578 620 525 574 q 632 744 632 667 q 585 864 632 819 q 460 908 538 908 q 319 849 371 908 q 267 689 267 790 l 267 0 l 108 0 l 108 678 q 203 940 108 843 q 463 1038 299 1038 z "},"à":{"ha":814,"x_min":57,"x_max":718,"o":"m 347 846 l 178 982 l 342 1051 l 489 846 l 347 846 m 561 0 l 561 90 q 317 -7 482 -7 q 128 58 199 -7 q 57 222 57 122 q 131 383 57 324 q 336 444 204 443 l 560 444 l 560 467 q 515 576 560 538 q 383 615 469 615 q 165 540 276 615 l 100 651 q 252 723 185 701 q 418 744 319 744 q 638 676 560 744 q 717 485 715 607 l 718 0 l 561 0 m 350 119 q 494 159 435 119 q 560 260 553 199 l 560 328 l 360 328 q 244 305 281 328 q 207 229 207 282 q 245 149 207 179 q 350 119 283 119 z "},"á":{"ha":814,"x_min":57,"x_max":718,"o":"m 451 844 l 310 844 l 457 1050 l 621 981 l 451 844 m 561 0 l 561 90 q 317 -7 482 -7 q 128 58 199 -7 q 57 222 57 122 q 131 383 57 324 q 336 444 204 443 l 560 444 l 560 467 q 515 576 560 538 q 383 615 469 615 q 165 540 276 615 l 100 651 q 252 723 185 701 q 418 744 319 744 q 638 676 560 744 q 717 485 715 607 l 718 0 l 561 0 m 350 119 q 494 159 435 119 q 560 260 553 199 l 560 328 l 360 328 q 244 305 281 328 q 207 229 207 282 q 245 149 207 179 q 350 119 283 119 z "},"â":{"ha":814,"x_min":57,"x_max":718,"o":"m 317 849 l 186 849 l 329 1044 l 476 1044 l 619 849 l 489 849 l 403 971 l 317 849 m 561 0 l 561 90 q 317 -7 482 -7 q 128 58 199 -7 q 57 222 57 122 q 131 383 57 324 q 336 444 204 443 l 560 444 l 560 467 q 515 576 560 538 q 383 615 469 615 q 165 540 276 615 l 100 651 q 252 723 185 701 q 418 744 319 744 q 638 676 560 744 q 717 485 715 607 l 718 0 l 561 0 m 350 119 q 494 159 435 119 q 560 260 553 199 l 560 328 l 360 328 q 244 305 281 328 q 207 229 207 282 q 245 149 207 179 q 350 119 283 119 z "},"ã":{"ha":814,"x_min":57,"x_max":718,"o":"m 333 939 q 282 871 282 939 l 179 871 q 307 1053 179 1053 q 401 1015 349 1053 q 472 976 453 976 q 525 1044 525 976 l 626 1044 q 500 863 626 863 q 403 901 454 863 q 333 939 353 939 m 561 0 l 561 90 q 317 -7 482 -7 q 128 58 199 -7 q 57 222 57 122 q 131 383 57 324 q 336 444 204 443 l 560 444 l 560 467 q 515 576 560 538 q 383 615 469 615 q 165 540 276 615 l 100 651 q 252 723 185 701 q 418 744 319 744 q 638 676 560 744 q 717 485 715 607 l 718 0 l 561 0 m 350 119 q 494 159 435 119 q 560 260 553 199 l 560 328 l 360 328 q 244 305 281 328 q 207 229 207 282 q 245 149 207 179 q 350 119 283 119 z "},"ä":{"ha":814,"x_min":57,"x_max":718,"o":"m 340 894 q 328 882 340 894 q 281 869 317 869 q 220 894 244 869 q 196 957 196 919 q 220 1021 196 996 q 281 1046 244 1046 q 340 1021 317 1046 q 364 957 364 996 q 340 894 364 919 m 586 894 q 574 882 586 894 q 526 869 563 869 q 466 894 490 869 q 442 957 442 919 q 466 1021 442 996 q 526 1046 490 1046 q 586 1021 563 1046 q 610 957 610 996 q 586 894 610 919 m 561 0 l 561 90 q 317 -7 482 -7 q 128 58 199 -7 q 57 222 57 122 q 131 383 57 324 q 336 444 204 443 l 560 444 l 560 467 q 515 576 560 538 q 383 615 469 615 q 165 540 276 615 l 100 651 q 252 723 185 701 q 418 744 319 744 q 638 676 560 744 q 717 485 715 607 l 718 0 l 561 0 m 350 119 q 494 159 435 119 q 560 260 553 199 l 560 328 l 360 328 q 244 305 281 328 q 207 229 207 282 q 245 149 207 179 q 350 119 283 119 z "},"å":{"ha":814,"x_min":57,"x_max":718,"o":"m 519 838 q 495 814 519 838 q 403 790 471 790 q 287 838 335 790 q 239 951 239 885 q 287 1065 239 1017 q 403 1113 335 1113 q 519 1065 471 1113 q 567 951 567 1017 q 519 838 567 885 m 469 1014 q 456 1027 469 1014 q 403 1040 442 1040 q 336 1014 364 1040 q 308 951 308 988 q 336 889 308 915 q 403 863 364 863 q 469 889 442 863 q 497 951 497 915 q 469 1014 497 988 m 561 0 l 561 90 q 317 -7 482 -7 q 128 58 199 -7 q 57 222 57 122 q 131 383 57 324 q 336 444 204 443 l 560 444 l 560 467 q 515 576 560 538 q 383 615 469 615 q 165 540 276 615 l 100 651 q 252 723 185 701 q 418 744 319 744 q 638 676 560 744 q 717 485 715 607 l 718 0 l 561 0 m 350 119 q 494 159 435 119 q 560 260 553 199 l 560 328 l 360 328 q 244 305 281 328 q 207 229 207 282 q 245 149 207 179 q 350 119 283 119 z "},"æ":{"ha":1353,"x_min":57,"x_max":1307,"o":"m 940 744 q 1213 631 1113 744 q 1307 335 1314 518 l 724 335 q 799 181 736 238 q 957 124 863 124 q 1165 210 1082 124 l 1251 119 q 944 -6 1135 -6 q 755 41 836 -6 q 631 172 674 88 q 315 -7 542 -7 q 127 55 197 -7 q 57 215 57 117 q 131 369 57 315 q 338 425 204 424 l 563 425 l 563 467 q 517 576 563 538 q 385 615 471 615 q 140 540 267 615 l 100 656 q 418 744 263 744 q 678 633 601 744 q 940 744 776 744 m 724 421 l 1147 421 q 1088 570 1144 513 q 942 628 1032 628 q 795 570 854 628 q 724 421 736 513 m 575 260 l 606 233 q 596 271 601 246 l 564 278 l 564 339 l 368 339 q 249 310 290 339 q 207 229 207 282 q 247 140 207 174 q 351 106 286 106 q 575 260 513 106 z "},"ç":{"ha":783,"x_min":49,"x_max":735,"o":"m 646 221 l 735 132 q 471 -3 643 11 l 439 -69 q 510 -106 483 -78 q 536 -179 536 -135 q 494 -275 536 -239 q 389 -311 451 -311 q 267 -272 319 -311 l 297 -197 q 378 -225 333 -225 q 424 -208 407 -225 q 442 -168 442 -190 q 424 -131 442 -146 q 375 -115 407 -115 q 326 -122 351 -115 l 376 -3 q 139 113 229 11 q 49 368 49 214 q 152 640 49 536 q 421 744 256 744 q 726 624 621 744 l 639 521 q 428 604 556 606 q 270 538 332 604 q 208 368 208 472 q 270 198 208 264 q 428 132 332 132 q 646 221 569 132 z "},"è":{"ha":817,"x_min":49,"x_max":768,"o":"m 358 846 l 189 982 l 353 1051 l 500 846 l 358 846 m 422 744 q 698 630 613 744 q 768 308 783 515 l 210 308 q 290 173 229 222 q 439 124 351 124 q 647 210 564 124 l 732 119 q 426 -6 618 -6 q 152 98 256 -6 q 49 368 49 201 q 153 639 49 535 q 422 744 257 743 m 207 425 l 629 425 q 569 565 625 514 q 424 617 514 617 q 278 565 336 617 q 207 425 221 514 z "},"é":{"ha":817,"x_min":49,"x_max":768,"o":"m 463 844 l 321 844 l 468 1050 l 632 981 l 463 844 m 422 744 q 698 630 613 744 q 768 308 783 515 l 210 308 q 290 173 229 222 q 439 124 351 124 q 647 210 564 124 l 732 119 q 426 -6 618 -6 q 152 98 256 -6 q 49 368 49 201 q 153 639 49 535 q 422 744 257 743 m 207 425 l 629 425 q 569 565 625 514 q 424 617 514 617 q 278 565 336 617 q 207 425 221 514 z "},"ê":{"ha":817,"x_min":49,"x_max":768,"o":"m 329 849 l 199 849 l 342 1044 l 489 1044 l 632 849 l 501 849 l 415 971 l 329 849 m 422 744 q 698 630 613 744 q 768 308 783 515 l 210 308 q 290 173 229 222 q 439 124 351 124 q 647 210 564 124 l 732 119 q 426 -6 618 -6 q 152 98 256 -6 q 49 368 49 201 q 153 639 49 535 q 422 744 257 743 m 207 425 l 629 425 q 569 565 625 514 q 424 617 514 617 q 278 565 336 617 q 207 425 221 514 z "},"ë":{"ha":817,"x_min":49,"x_max":768,"o":"m 353 894 q 341 882 353 894 q 293 869 329 869 q 233 894 257 869 q 208 957 208 919 q 233 1021 208 996 q 293 1046 257 1046 q 353 1021 329 1046 q 376 957 376 996 q 353 894 376 919 m 599 894 q 587 882 599 894 q 539 869 575 869 q 478 894 503 869 q 454 957 454 919 q 478 1021 454 996 q 539 1046 503 1046 q 599 1021 575 1046 q 622 957 622 996 q 599 894 622 919 m 422 744 q 698 630 613 744 q 768 308 783 515 l 210 308 q 290 173 229 222 q 439 124 351 124 q 647 210 564 124 l 732 119 q 426 -6 618 -6 q 152 98 256 -6 q 49 368 49 201 q 153 639 49 535 q 422 744 257 743 m 207 425 l 629 425 q 569 565 625 514 q 424 617 514 617 q 278 565 336 617 q 207 425 221 514 z "},"ì":{"ha":394,"x_min":-28,"x_max":283,"o":"m 283 846 l 142 846 l -28 982 l 136 1051 l 283 846 m 276 0 l 118 0 l 118 739 l 276 739 l 276 0 z "},"í":{"ha":394,"x_min":104,"x_max":415,"o":"m 415 981 l 246 844 l 104 844 l 251 1050 l 415 981 m 276 0 l 118 0 l 118 739 l 276 739 l 276 0 z "},"î":{"ha":394,"x_min":-19,"x_max":414,"o":"m 414 849 l 283 849 l 197 971 l 111 849 l -19 849 l 124 1044 l 271 1044 l 414 849 m 276 0 l 118 0 l 118 739 l 276 739 l 276 0 z "},"ï":{"ha":394,"x_min":-10,"x_max":404,"o":"m 15 1021 q 27 1033 15 1021 q 75 1046 39 1046 q 135 1021 111 1046 q 158 957 158 996 q 135 894 158 919 q 75 869 111 869 q 15 894 39 869 q -10 957 -10 919 q 15 1021 -10 996 m 260 1021 q 273 1033 260 1021 q 321 1046 285 1046 q 381 1021 357 1046 q 404 957 404 996 q 381 894 404 919 q 321 869 357 869 q 260 894 285 869 q 236 957 236 919 q 260 1021 236 996 m 276 0 l 118 0 l 118 739 l 276 739 l 276 0 z "},"ð":{"ha":819,"x_min":50,"x_max":772,"o":"m 699 883 l 563 839 q 772 368 772 625 q 669 95 772 197 q 392 -7 565 -7 q 143 80 236 -7 q 50 311 50 167 q 136 533 50 450 q 365 615 222 615 q 512 585 444 615 q 613 503 579 554 q 419 790 567 653 l 208 721 l 182 804 l 342 857 q 171 964 253 925 l 276 1038 q 489 906 393 985 l 674 967 l 699 883 m 401 135 q 548 183 493 135 q 603 314 603 232 q 548 449 603 399 q 401 499 493 499 q 257 450 311 499 q 203 321 203 401 q 257 185 203 236 q 401 135 311 135 z "},"ñ":{"ha":921,"x_min":118,"x_max":825,"o":"m 411 939 q 360 871 360 939 l 257 871 q 385 1053 257 1053 q 478 1015 426 1053 q 550 976 531 976 q 603 1044 603 976 l 704 1044 q 578 863 704 863 q 481 901 532 863 q 411 939 431 939 m 550 744 q 752 669 679 744 q 825 460 825 593 l 825 0 l 665 0 l 665 415 q 618 547 665 499 q 488 594 571 594 q 342 538 399 593 q 278 393 286 482 l 278 0 l 118 0 l 118 739 l 278 739 l 278 597 q 550 744 353 744 z "},"ò":{"ha":868,"x_min":49,"x_max":819,"o":"m 519 846 l 378 846 l 208 982 l 372 1051 l 519 846 m 435 744 q 713 641 606 744 q 819 369 819 538 q 713 99 819 203 q 435 -6 606 -6 q 156 99 263 -6 q 49 369 49 203 q 156 641 49 538 q 435 744 263 744 m 435 607 q 272 540 335 607 q 208 368 208 474 q 272 194 208 261 q 435 128 335 128 q 597 194 535 128 q 660 368 660 261 q 597 540 660 474 q 435 607 533 607 z "},"ó":{"ha":868,"x_min":49,"x_max":819,"o":"m 651 981 l 482 844 l 340 844 l 488 1050 l 651 981 m 435 744 q 713 641 606 744 q 819 369 819 538 q 713 99 819 203 q 435 -6 606 -6 q 156 99 263 -6 q 49 369 49 203 q 156 641 49 538 q 435 744 263 744 m 435 607 q 272 540 335 607 q 208 368 208 474 q 272 194 208 261 q 435 128 335 128 q 597 194 535 128 q 660 368 660 261 q 597 540 660 474 q 435 607 533 607 z "},"ô":{"ha":868,"x_min":49,"x_max":819,"o":"m 651 849 l 521 849 l 435 971 l 349 849 l 218 849 l 361 1044 l 508 1044 l 651 849 m 435 744 q 713 641 606 744 q 819 369 819 538 q 713 99 819 203 q 435 -6 606 -6 q 156 99 263 -6 q 49 369 49 203 q 156 641 49 538 q 435 744 263 744 m 435 607 q 272 540 335 607 q 208 368 208 474 q 272 194 208 261 q 435 128 335 128 q 597 194 535 128 q 660 368 660 261 q 597 540 660 474 q 435 607 533 607 z "},"õ":{"ha":868,"x_min":49,"x_max":819,"o":"m 338 1053 q 431 1015 379 1053 q 503 976 483 976 q 556 1044 556 976 l 657 1044 q 531 863 657 863 q 434 901 485 863 q 364 939 383 939 q 313 871 313 939 l 210 871 q 338 1053 210 1053 m 435 744 q 713 641 606 744 q 819 369 819 538 q 713 99 819 203 q 435 -6 606 -6 q 156 99 263 -6 q 49 369 49 203 q 156 641 49 538 q 435 744 263 744 m 435 607 q 272 540 335 607 q 208 368 208 474 q 272 194 208 261 q 435 128 335 128 q 597 194 535 128 q 660 368 660 261 q 597 540 660 474 q 435 607 533 607 z "},"ö":{"ha":868,"x_min":49,"x_max":819,"o":"m 252 1021 q 264 1033 252 1021 q 313 1046 276 1046 q 372 1021 349 1046 q 396 957 396 996 q 372 894 396 919 q 313 869 349 869 q 252 894 276 869 q 228 957 228 919 q 252 1021 228 996 m 498 1021 q 510 1033 498 1021 q 558 1046 522 1046 q 618 1021 594 1046 q 642 957 642 996 q 618 894 642 919 q 558 869 594 869 q 498 894 522 869 q 474 957 474 919 q 498 1021 474 996 m 435 744 q 713 641 606 744 q 819 369 819 538 q 713 99 819 203 q 435 -6 606 -6 q 156 99 263 -6 q 49 369 49 203 q 156 641 49 538 q 435 744 263 744 m 435 607 q 272 540 335 607 q 208 368 208 474 q 272 194 208 261 q 435 128 335 128 q 597 194 535 128 q 660 368 660 261 q 597 540 660 474 q 435 607 533 607 z "},"÷":{"ha":692,"x_min":49,"x_max":643,"o":"m 278 769 q 290 782 278 769 q 338 794 301 794 q 398 769 374 794 q 422 707 422 744 q 398 643 422 668 q 338 618 374 618 q 278 643 301 618 q 254 707 254 668 q 278 769 254 744 m 643 396 l 49 396 l 49 506 l 643 506 l 643 396 m 278 276 q 290 289 278 276 q 338 301 301 301 q 398 276 374 301 q 422 214 422 251 q 398 150 422 175 q 338 125 374 125 q 278 150 301 125 q 254 214 254 175 q 278 276 254 251 z "},"ø":{"ha":868,"x_min":49,"x_max":819,"o":"m 650 924 l 585 719 q 756 588 693 681 q 819 369 819 496 q 713 99 819 203 q 435 -6 606 -6 q 353 1 394 -6 l 286 -203 l 214 -203 l 286 19 q 113 151 176 58 q 49 369 49 243 q 156 641 49 538 q 435 744 263 744 q 518 738 474 744 l 578 924 l 650 924 m 200 368 q 233 229 200 289 q 325 140 267 169 l 479 617 q 435 621 458 621 q 265 551 331 621 q 200 368 200 481 m 435 115 q 604 185 539 115 q 669 368 669 256 q 636 506 669 446 q 544 596 603 567 l 390 119 q 435 115 411 115 z "},"ù":{"ha":907,"x_min":94,"x_max":789,"o":"m 393 846 l 224 982 l 388 1051 l 535 846 l 393 846 m 789 739 l 789 0 l 629 0 l 629 144 q 365 -6 557 -3 q 167 71 239 -6 q 94 279 94 147 l 94 739 l 254 739 l 254 324 q 300 192 254 240 q 426 144 346 144 q 574 210 519 146 q 629 375 629 275 l 629 739 l 789 739 z "},"ú":{"ha":907,"x_min":94,"x_max":789,"o":"m 497 844 l 356 844 l 503 1050 l 667 981 l 497 844 m 789 739 l 789 0 l 629 0 l 629 144 q 365 -6 557 -3 q 167 71 239 -6 q 94 279 94 147 l 94 739 l 254 739 l 254 324 q 300 192 254 240 q 426 144 346 144 q 574 210 519 146 q 629 375 629 275 l 629 739 l 789 739 z "},"û":{"ha":907,"x_min":94,"x_max":789,"o":"m 363 849 l 232 849 l 375 1044 l 522 1044 l 665 849 l 535 849 l 449 971 l 363 849 m 789 739 l 789 0 l 629 0 l 629 144 q 365 -6 557 -3 q 167 71 239 -6 q 94 279 94 147 l 94 739 l 254 739 l 254 324 q 300 192 254 240 q 426 144 346 144 q 574 210 519 146 q 629 375 629 275 l 629 739 l 789 739 z "},"ü":{"ha":907,"x_min":94,"x_max":789,"o":"m 386 894 q 374 882 386 894 q 326 869 363 869 q 266 894 290 869 q 242 957 242 919 q 266 1021 242 996 q 326 1046 290 1046 q 386 1021 363 1046 q 410 957 410 996 q 386 894 410 919 m 632 894 q 620 882 632 894 q 572 869 608 869 q 512 894 536 869 q 488 957 488 919 q 512 1021 488 996 q 572 1046 536 1046 q 632 1021 608 1046 q 656 957 656 996 q 632 894 656 919 m 789 739 l 789 0 l 629 0 l 629 144 q 365 -6 557 -3 q 167 71 239 -6 q 94 279 94 147 l 94 739 l 254 739 l 254 324 q 300 192 254 240 q 426 144 346 144 q 574 210 519 146 q 629 375 629 275 l 629 739 l 789 739 z "},"ý":{"ha":738,"x_min":-7,"x_max":744,"o":"m 589 981 l 419 844 l 278 844 l 425 1050 l 589 981 m 744 739 l 408 -101 q 168 -276 340 -276 q -3 -214 72 -276 l 65 -90 q 161 -126 115 -126 q 274 -44 236 -126 l 299 11 l -7 739 l 158 739 l 379 179 l 585 739 l 744 739 z "},"þ":{"ha":944,"x_min":125,"x_max":896,"o":"m 543 744 q 798 640 700 744 q 896 367 896 535 q 800 97 896 200 q 546 -6 704 -6 q 285 128 368 -6 l 285 -269 l 125 -269 l 125 1031 l 285 1031 l 285 611 q 543 744 368 744 m 348 198 q 380 164 348 198 q 510 131 411 131 q 672 198 608 131 q 735 372 735 265 q 672 544 735 476 q 510 611 608 611 q 348 544 411 611 q 285 372 285 476 q 348 198 285 265 z "},"ÿ":{"ha":738,"x_min":-7,"x_max":744,"o":"m 188 1021 q 200 1033 188 1021 q 249 1046 213 1046 q 308 1021 285 1046 q 332 957 332 996 q 308 894 332 919 q 249 869 285 869 q 188 894 213 869 q 164 957 164 919 q 188 1021 164 996 m 434 1021 q 446 1033 434 1021 q 494 1046 458 1046 q 554 1021 531 1046 q 578 957 578 996 q 554 894 578 919 q 494 869 531 869 q 434 894 458 869 q 410 957 410 919 q 434 1021 410 996 m 744 739 l 408 -101 q 168 -276 340 -276 q -3 -214 72 -276 l 65 -90 q 161 -126 115 -126 q 274 -44 236 -126 l 299 11 l -7 739 l 158 739 l 379 179 l 585 739 l 744 739 z "},"Ā":{"ha":1025,"x_min":1,"x_max":1024,"o":"m 690 1124 l 336 1124 l 336 1239 l 690 1239 l 690 1124 m 756 219 l 265 219 l 172 0 l 1 0 l 431 972 l 599 972 l 1024 0 l 849 0 l 756 219 m 693 365 l 510 797 l 326 365 l 693 365 z "},"ā":{"ha":814,"x_min":57,"x_max":718,"o":"m 581 890 l 226 890 l 226 1006 l 581 1006 l 581 890 m 561 0 l 561 90 q 317 -7 482 -7 q 128 58 199 -7 q 57 222 57 122 q 131 383 57 324 q 336 444 204 443 l 560 444 l 560 467 q 515 576 560 538 q 383 615 469 615 q 165 540 276 615 l 100 651 q 252 723 185 701 q 418 744 319 744 q 638 676 560 744 q 717 485 715 607 l 718 0 l 561 0 m 350 119 q 494 159 435 119 q 560 260 553 199 l 560 328 l 360 328 q 244 305 281 328 q 207 229 207 282 q 245 149 207 179 q 350 119 283 119 z "},"Ă":{"ha":1025,"x_min":1,"x_max":1024,"o":"m 651 1130 q 623 1102 651 1130 q 513 1075 596 1075 q 374 1130 429 1075 q 317 1272 319 1185 l 425 1272 q 452 1207 428 1232 q 513 1182 476 1182 q 573 1207 549 1182 q 600 1272 597 1232 l 708 1272 q 651 1130 706 1185 m 756 219 l 265 219 l 172 0 l 1 0 l 431 972 l 599 972 l 1024 0 l 849 0 l 756 219 m 693 365 l 510 797 l 326 365 l 693 365 z "},"ă":{"ha":814,"x_min":57,"x_max":718,"o":"m 541 897 q 514 869 541 897 q 403 842 486 842 q 265 897 319 842 q 207 1039 210 951 l 315 1039 q 342 974 318 999 q 403 949 367 949 q 463 974 439 949 q 490 1039 488 999 l 599 1039 q 541 897 596 951 m 561 0 l 561 90 q 317 -7 482 -7 q 128 58 199 -7 q 57 222 57 122 q 131 383 57 324 q 336 444 204 443 l 560 444 l 560 467 q 515 576 560 538 q 383 615 469 615 q 165 540 276 615 l 100 651 q 252 723 185 701 q 418 744 319 744 q 638 676 560 744 q 717 485 715 607 l 718 0 l 561 0 m 350 119 q 494 159 435 119 q 560 260 553 199 l 560 328 l 360 328 q 244 305 281 328 q 207 229 207 282 q 245 149 207 179 q 350 119 283 119 z "},"Ą":{"ha":1025,"x_min":1,"x_max":1067,"o":"m 1025 0 l 979 0 q 911 -146 911 -96 q 953 -190 911 -190 q 1021 -146 986 -190 l 1067 -200 q 935 -279 1018 -279 q 858 -251 890 -279 q 825 -171 825 -224 q 897 0 825 -103 l 850 0 l 756 219 l 267 219 l 172 0 l 1 0 l 431 972 l 600 972 l 1025 0 m 325 364 l 697 364 l 511 797 l 325 364 z "},"ą":{"ha":819,"x_min":57,"x_max":757,"o":"m 418 744 q 638 676 560 744 q 718 485 715 607 l 718 0 l 671 0 q 601 -146 601 -96 q 643 -190 601 -190 q 711 -146 676 -190 l 757 -200 q 625 -279 707 -279 q 548 -252 581 -279 q 515 -171 515 -225 q 590 0 515 -99 l 561 0 l 561 90 q 317 -7 482 -7 q 128 58 199 -7 q 57 222 57 122 q 131 383 57 324 q 335 444 204 443 l 560 444 l 560 467 q 382 615 557 615 q 165 540 276 615 l 100 651 q 251 723 185 701 q 418 744 318 744 m 561 328 l 360 328 q 243 305 279 328 q 207 229 207 282 q 245 149 207 179 q 350 119 283 119 q 495 162 432 119 q 561 258 558 204 l 561 328 z "},"Ć":{"ha":968,"x_min":47,"x_max":929,"o":"m 735 1214 l 565 1078 l 424 1078 l 571 1283 l 735 1214 m 558 976 q 759 937 661 976 q 928 826 857 897 l 832 707 q 707 797 779 764 q 561 831 635 831 q 315 731 415 831 q 214 489 214 632 q 315 245 214 344 q 561 146 415 146 q 832 261 713 146 l 929 153 q 754 36 854 79 q 553 -7 654 -7 q 193 135 339 -7 q 47 488 47 278 q 195 835 47 694 q 558 976 343 976 z "},"ć":{"ha":783,"x_min":49,"x_max":735,"o":"m 617 981 l 447 844 l 306 844 l 453 1050 l 617 981 m 421 744 q 726 624 621 744 l 639 521 q 428 604 556 606 q 270 538 332 604 q 208 368 208 472 q 270 198 208 264 q 428 132 332 132 q 646 221 569 132 l 735 132 q 421 -6 631 -6 q 152 98 256 -6 q 49 368 49 201 q 152 640 49 536 q 421 744 256 744 z "},"Č":{"ha":968,"x_min":47,"x_max":929,"o":"m 283 1278 l 425 1278 l 513 1149 l 600 1278 l 742 1278 l 592 1069 l 433 1069 l 283 1278 m 558 976 q 759 937 661 976 q 928 826 857 897 l 832 707 q 707 797 779 764 q 561 831 635 831 q 315 731 415 831 q 214 489 214 632 q 315 245 214 344 q 561 146 415 146 q 832 261 713 146 l 929 153 q 754 36 854 79 q 553 -7 654 -7 q 193 135 339 -7 q 47 488 47 278 q 195 835 47 694 q 558 976 343 976 z "},"č":{"ha":783,"x_min":49,"x_max":735,"o":"m 167 1044 l 308 1044 l 396 915 l 483 1044 l 625 1044 l 475 836 l 317 836 l 167 1044 m 421 744 q 726 624 621 744 l 639 521 q 428 604 556 606 q 270 538 332 604 q 208 368 208 472 q 270 198 208 264 q 428 132 332 132 q 646 221 569 132 l 735 132 q 421 -6 631 -6 q 152 98 256 -6 q 49 368 49 201 q 152 640 49 536 q 421 744 256 744 z "},"Ď":{"ha":1076,"x_min":128,"x_max":1029,"o":"m 274 1278 l 415 1278 l 503 1149 l 590 1278 l 732 1278 l 582 1069 l 424 1069 l 274 1278 m 128 972 l 526 972 q 887 835 744 972 q 1029 486 1029 697 q 886 138 1029 275 q 522 0 743 0 l 128 0 l 128 972 m 292 825 l 292 147 l 531 147 q 769 242 674 147 q 864 485 864 338 q 766 728 864 632 q 524 825 668 825 l 292 825 z "},"ď":{"ha":999,"x_min":49,"x_max":1076,"o":"m 663 1031 l 822 1031 l 822 0 l 663 0 l 663 126 q 403 -7 581 -7 q 147 98 244 -7 q 49 372 49 203 q 146 642 49 539 q 400 746 243 746 q 663 611 578 746 l 663 1031 m 992 951 q 1051 927 1026 951 q 1076 863 1076 903 q 1051 789 1076 825 l 972 669 l 890 669 l 943 790 q 906 863 906 815 q 930 926 906 901 q 992 951 954 951 m 273 194 q 305 160 273 194 q 436 126 336 126 q 599 194 536 126 q 663 367 663 261 q 599 542 663 474 q 436 610 536 610 q 273 542 336 610 q 208 367 210 474 q 273 194 210 261 z "},"Đ":{"ha":1076,"x_min":128,"x_max":1029,"o":"m 685 1124 l 331 1124 l 331 1239 l 685 1239 l 685 1124 m 128 972 l 526 972 q 887 835 744 972 q 1029 486 1029 697 q 886 138 1029 275 q 522 0 743 0 l 128 0 l 128 972 m 292 825 l 292 147 l 531 147 q 769 242 674 147 q 864 485 864 338 q 766 728 864 632 q 524 825 668 825 l 292 825 z "},"đ":{"ha":943,"x_min":49,"x_max":918,"o":"m 918 856 l 822 856 l 822 0 l 663 0 l 663 126 q 403 -7 581 -7 q 147 98 244 -7 q 49 372 49 203 q 146 642 49 539 q 400 746 243 746 q 663 611 578 746 l 663 856 l 525 856 l 525 947 l 663 947 l 663 1031 l 822 1031 l 822 947 l 918 947 l 918 856 m 273 194 q 305 160 273 194 q 436 126 336 126 q 599 194 536 126 q 663 367 663 261 q 599 542 663 474 q 436 610 536 610 q 273 542 336 610 q 208 367 210 474 q 273 194 210 261 z "},"Ē":{"ha":911,"x_min":128,"x_max":839,"o":"m 656 1124 l 301 1124 l 301 1239 l 656 1239 l 656 1124 m 822 825 l 292 825 l 292 563 l 767 563 l 767 415 l 292 415 l 292 147 l 839 147 l 839 0 l 128 0 l 128 972 l 822 972 l 822 825 z "},"ē":{"ha":817,"x_min":49,"x_max":768,"o":"m 592 890 l 238 890 l 238 1006 l 592 1006 l 592 890 m 422 744 q 698 630 613 744 q 768 308 783 515 l 210 308 q 290 173 229 222 q 439 124 351 124 q 647 210 564 124 l 732 119 q 426 -6 618 -6 q 152 98 256 -6 q 49 368 49 201 q 153 639 49 535 q 422 744 257 743 m 207 425 l 629 425 q 569 565 625 514 q 424 617 514 617 q 278 565 336 617 q 207 425 221 514 z "},"Ė":{"ha":911,"x_min":128,"x_max":839,"o":"m 411 1253 q 424 1267 411 1253 q 478 1281 438 1281 q 544 1253 518 1281 q 571 1183 571 1226 q 544 1115 571 1142 q 478 1088 518 1088 q 411 1115 438 1088 q 385 1183 385 1142 q 411 1253 385 1226 m 822 825 l 292 825 l 292 563 l 767 563 l 767 415 l 292 415 l 292 147 l 839 147 l 839 0 l 128 0 l 128 972 l 822 972 l 822 825 z "},"ė":{"ha":817,"x_min":49,"x_max":768,"o":"m 482 881 q 469 868 482 881 q 415 854 456 854 q 349 881 375 854 q 322 950 322 908 q 349 1020 322 993 q 415 1047 375 1047 q 482 1020 456 1047 q 508 950 508 993 q 482 881 508 908 m 422 744 q 698 630 613 744 q 768 308 783 515 l 210 308 q 290 173 229 222 q 439 124 351 124 q 647 210 564 124 l 732 119 q 426 -6 618 -6 q 152 98 256 -6 q 49 368 49 201 q 153 639 49 535 q 422 744 257 743 m 207 425 l 629 425 q 569 565 625 514 q 424 617 514 617 q 278 565 336 617 q 207 425 221 514 z "},"Ę":{"ha":924,"x_min":128,"x_max":851,"o":"m 835 836 l 292 836 l 292 561 l 779 561 l 779 426 l 292 426 l 292 136 l 851 136 l 851 0 l 760 0 q 690 -146 690 -96 q 702 -178 690 -167 q 732 -190 714 -190 q 801 -146 767 -190 l 847 -200 q 714 -279 794 -279 q 638 -251 669 -279 q 606 -171 606 -224 q 678 0 606 -101 l 128 0 l 128 972 l 835 972 l 835 836 z "},"ę":{"ha":817,"x_min":49,"x_max":769,"o":"m 422 743 q 694 632 604 749 q 769 308 783 515 l 210 308 q 288 172 229 222 q 439 122 347 122 q 647 210 563 122 l 732 119 q 588 -143 588 -51 q 629 -190 588 -190 q 696 -146 663 -190 l 742 -200 q 611 -279 690 -279 q 533 -252 565 -279 q 501 -169 501 -225 q 589 39 501 -79 q 419 -6 514 -6 q 152 99 256 -6 q 49 371 49 203 q 147 636 49 533 q 422 743 246 739 m 569 564 q 542 590 569 564 q 425 617 514 617 q 276 564 336 617 q 207 425 215 511 l 629 425 q 569 564 625 511 z "},"Ě":{"ha":911,"x_min":128,"x_max":839,"o":"m 244 1278 l 386 1278 l 474 1149 l 561 1278 l 703 1278 l 553 1069 l 394 1069 l 244 1278 m 822 825 l 292 825 l 292 563 l 767 563 l 767 415 l 292 415 l 292 147 l 839 147 l 839 0 l 128 0 l 128 972 l 822 972 l 822 825 z "},"ě":{"ha":817,"x_min":49,"x_max":768,"o":"m 332 836 l 182 1044 l 324 1044 l 411 915 l 499 1044 l 640 1044 l 490 836 l 332 836 m 422 744 q 698 630 613 744 q 768 308 783 515 l 210 308 q 290 173 229 222 q 439 124 351 124 q 647 210 564 124 l 732 119 q 426 -6 618 -6 q 152 98 256 -6 q 49 368 49 201 q 153 639 49 535 q 422 744 257 743 m 207 425 l 629 425 q 569 565 625 514 q 424 617 514 617 q 278 565 336 617 q 207 425 221 514 z "},"Ğ":{"ha":1040,"x_min":47,"x_max":942,"o":"m 676 1130 q 648 1102 676 1130 q 538 1075 621 1075 q 399 1130 454 1075 q 342 1272 344 1185 l 450 1272 q 477 1207 453 1232 q 538 1182 501 1182 q 598 1207 574 1182 q 625 1272 622 1232 l 733 1272 q 676 1130 731 1185 m 793 478 l 936 478 l 936 119 q 759 28 861 63 q 558 -7 657 -7 q 195 135 343 -7 q 47 486 47 278 q 197 835 47 694 q 568 976 347 976 q 770 940 671 976 q 942 840 869 903 l 849 719 q 568 831 729 831 q 317 731 419 831 q 214 486 214 631 q 317 240 214 340 q 569 140 421 140 q 793 207 682 140 l 793 478 z "},"ğ":{"ha":889,"x_min":49,"x_max":785,"o":"m 583 897 q 555 869 583 897 q 444 842 528 842 q 306 897 361 842 q 249 1039 251 951 l 357 1039 q 384 974 360 999 q 444 949 408 949 q 505 974 481 949 q 532 1039 529 999 l 640 1039 q 583 897 638 951 m 785 739 l 785 72 q 681 -180 785 -86 q 401 -274 576 -274 q 94 -176 238 -274 l 163 -61 q 394 -142 271 -142 q 563 -85 500 -142 q 626 68 626 -28 l 626 161 q 382 36 549 36 q 140 135 232 36 q 49 393 49 233 q 139 647 49 550 q 376 744 229 743 q 626 619 546 746 l 626 739 l 785 739 m 414 161 q 567 225 507 161 q 626 389 626 289 q 567 552 626 489 q 414 615 508 615 q 260 552 319 615 q 199 389 200 489 q 259 225 200 289 q 414 161 318 161 z "},"Ģ":{"ha":1040,"x_min":47,"x_max":942,"o":"m 793 478 l 936 478 l 936 119 q 759 28 861 63 q 558 -7 657 -7 q 195 135 343 -7 q 47 486 47 278 q 197 835 47 694 q 568 976 347 976 q 770 940 671 976 q 942 840 869 903 l 849 719 q 568 831 729 831 q 317 731 419 831 q 214 486 214 631 q 317 240 214 340 q 569 140 421 140 q 793 207 682 140 l 793 478 m 546 -68 q 606 -92 581 -68 q 631 -157 631 -117 q 606 -229 631 -193 l 526 -349 l 444 -349 l 497 -229 q 460 -157 460 -204 q 484 -93 460 -118 q 546 -68 508 -68 z "},"ģ":{"ha":889,"x_min":49,"x_max":785,"o":"m 436 807 q 376 831 401 807 q 351 896 351 856 q 376 968 351 932 l 456 1088 l 538 1088 l 485 968 q 522 896 522 943 q 498 832 522 857 q 436 807 474 807 m 785 739 l 785 72 q 681 -180 785 -86 q 401 -274 576 -274 q 94 -176 238 -274 l 163 -61 q 394 -142 271 -142 q 563 -85 500 -142 q 626 68 626 -28 l 626 161 q 382 36 549 36 q 140 135 232 36 q 49 393 49 233 q 139 647 49 550 q 376 744 229 743 q 626 619 546 746 l 626 739 l 785 739 m 414 161 q 567 225 507 161 q 626 389 626 289 q 567 552 626 489 q 414 615 508 615 q 260 552 319 615 q 199 389 200 489 q 259 225 200 289 q 414 161 318 161 z "},"ħ":{"ha":1132,"x_min":8,"x_max":833,"o":"m 558 744 q 760 669 688 744 q 833 460 833 593 l 833 0 l 674 0 l 674 415 q 626 547 674 499 q 496 594 579 594 q 342 528 399 593 q 285 364 285 464 l 285 0 l 125 0 l 125 818 l 8 818 l 8 914 l 125 914 l 125 1031 l 285 1031 l 285 914 l 481 914 l 481 818 l 285 818 l 285 594 q 558 744 361 744 z "},"Ĩ":{"ha":419,"x_min":-14,"x_max":433,"o":"m 114 1286 q 208 1248 156 1286 q 279 1210 260 1210 q 332 1278 332 1210 l 433 1278 q 307 1096 433 1096 q 210 1134 261 1096 q 140 1172 160 1172 q 89 1104 89 1172 l -14 1104 q 114 1286 -14 1286 m 292 0 l 128 0 l 128 972 l 292 972 l 292 0 z "},"ĩ":{"ha":394,"x_min":-26,"x_max":421,"o":"m 101 1053 q 195 1015 143 1053 q 267 976 247 976 q 319 1044 319 976 l 421 1044 q 294 863 421 863 q 198 901 249 863 q 128 939 147 939 q 76 871 76 939 l -26 871 q 101 1053 -26 1053 m 276 0 l 118 0 l 118 739 l 276 739 l 276 0 z "},"Ī":{"ha":419,"x_min":33,"x_max":388,"o":"m 388 1124 l 33 1124 l 33 1239 l 388 1239 l 388 1124 m 292 0 l 128 0 l 128 972 l 292 972 l 292 0 z "},"ī":{"ha":394,"x_min":21,"x_max":375,"o":"m 375 890 l 21 890 l 21 1006 l 375 1006 l 375 890 m 276 0 l 118 0 l 118 739 l 276 739 l 276 0 z "},"Į":{"ha":419,"x_min":104,"x_max":346,"o":"m 300 -146 l 346 -200 q 214 -279 296 -279 q 137 -252 169 -279 q 104 -171 104 -225 q 176 0 104 -103 l 128 0 l 128 972 l 292 972 l 292 0 l 258 0 q 190 -146 190 -96 q 201 -178 190 -167 q 231 -190 213 -190 q 300 -146 265 -190 z "},"į":{"ha":371,"x_min":81,"x_max":322,"o":"m 121 1020 q 134 1034 121 1020 q 188 1047 147 1047 q 254 1020 228 1047 q 281 950 281 993 q 254 880 281 907 q 188 853 228 853 q 121 880 147 853 q 94 950 94 907 q 121 1020 94 993 m 268 0 l 235 0 q 167 -146 167 -96 q 208 -190 167 -190 q 276 -146 242 -190 l 322 -200 q 190 -279 272 -279 q 113 -252 146 -279 q 81 -171 81 -225 q 153 0 81 -103 l 108 0 l 108 739 l 268 739 l 268 0 z "},"İ":{"ha":419,"x_min":117,"x_max":303,"o":"m 143 1253 q 156 1267 143 1253 q 210 1281 169 1281 q 276 1253 250 1281 q 303 1183 303 1226 q 276 1115 303 1142 q 210 1088 250 1088 q 143 1115 169 1088 q 117 1183 117 1142 q 143 1253 117 1226 m 292 0 l 128 0 l 128 972 l 292 972 l 292 0 z "},"ı":{"ha":394,"x_min":118,"x_max":276,"o":"m 276 0 l 118 0 l 118 739 l 276 739 l 276 0 z "},"Ĳ":{"ha":1113,"x_min":128,"x_max":1006,"o":"m 292 0 l 128 0 l 128 972 l 292 972 l 292 0 m 1006 972 l 1006 300 q 925 74 1006 154 q 703 -7 844 -7 q 417 133 531 -7 l 494 258 q 701 151 593 151 q 804 191 768 151 q 840 306 840 231 l 840 825 l 504 825 l 504 972 l 1006 972 z "},"ĳ":{"ha":793,"x_min":104,"x_max":689,"o":"m 131 1020 q 144 1034 131 1020 q 197 1047 157 1047 q 264 1020 238 1047 q 290 950 290 993 q 264 881 290 908 q 197 854 238 854 q 131 881 157 854 q 104 950 104 908 q 131 1020 104 993 m 590 1047 q 661 1020 633 1047 q 689 950 689 993 q 661 881 689 908 q 590 853 633 853 q 521 881 549 853 q 493 950 493 908 q 521 1020 493 993 q 590 1047 549 1047 m 276 0 l 118 0 l 118 739 l 276 739 l 276 0 m 669 739 l 669 -21 q 599 -210 669 -144 q 431 -276 528 -276 q 276 -226 344 -276 l 329 -103 q 424 -136 376 -136 q 487 -111 463 -136 q 511 -36 511 -86 l 511 739 l 669 739 z "},"Ĵ":{"ha":693,"x_min":-3,"x_max":586,"o":"m 547 1082 l 417 1082 l 331 1204 l 244 1082 l 114 1082 l 257 1278 l 404 1278 l 547 1082 m 586 972 l 586 300 q 506 74 586 154 q 283 -7 425 -7 q -3 133 111 -7 l 75 258 q 282 151 174 151 q 385 191 349 151 q 421 306 421 231 l 421 825 l 85 825 l 85 972 l 586 972 z "},"ĵ":{"ha":381,"x_min":-126,"x_max":407,"o":"m 407 849 l 276 849 l 190 971 l 104 849 l -26 849 l 117 1044 l 264 1044 l 407 849 m 276 739 l 276 -33 q 217 -213 276 -150 q 50 -275 157 -276 q -126 -225 -51 -272 l -86 -108 q 17 -142 -39 -139 q 91 -109 65 -143 q 117 -10 117 -75 l 117 739 l 276 739 z "},"Ķ":{"ha":997,"x_min":128,"x_max":974,"o":"m 974 0 l 776 0 l 457 429 l 292 247 l 292 0 l 128 0 l 128 972 l 292 972 l 292 469 l 756 972 l 949 972 l 572 557 l 974 0 m 499 -68 q 558 -92 533 -68 q 583 -157 583 -117 q 558 -229 583 -193 l 479 -349 l 397 -349 l 450 -229 q 413 -157 413 -204 q 437 -93 413 -118 q 499 -68 461 -68 z "},"ķ":{"ha":826,"x_min":35,"x_max":815,"o":"m 240 0 l 208 -65 q 278 -101 251 -72 q 306 -171 304 -131 q 265 -269 307 -232 q 153 -307 222 -307 q 35 -269 86 -307 l 67 -194 q 139 -221 97 -221 q 192 -202 172 -221 q 211 -156 213 -183 q 192 -112 211 -129 q 144 -96 174 -96 q 100 -100 133 -96 l 147 0 l 125 0 l 125 1031 l 285 1031 l 285 408 l 611 739 l 794 739 l 521 453 l 815 0 l 626 0 l 410 339 l 285 207 l 285 0 l 240 0 z "},"ĸ":{"ha":819,"x_min":118,"x_max":808,"o":"m 404 339 l 276 206 l 276 0 l 118 0 l 118 739 l 276 739 l 276 408 l 604 739 l 788 739 l 514 453 l 808 0 l 619 0 l 404 339 z "},"Ĺ":{"ha":742,"x_min":119,"x_max":713,"o":"m 431 1214 l 261 1078 l 119 1078 l 267 1283 l 431 1214 m 292 149 l 713 149 l 713 0 l 128 0 l 128 972 l 292 972 l 292 149 z "},"ĺ":{"ha":410,"x_min":113,"x_max":424,"o":"m 424 1272 l 254 1136 l 113 1136 l 260 1342 l 424 1272 m 285 0 l 125 0 l 125 1031 l 285 1031 l 285 0 z "},"Ļ":{"ha":742,"x_min":128,"x_max":713,"o":"m 713 149 l 713 0 l 128 0 l 128 972 l 292 972 l 292 149 l 713 149 m 411 -68 q 471 -92 446 -68 q 496 -157 496 -117 q 471 -229 496 -193 l 392 -349 l 310 -349 l 363 -229 q 325 -157 325 -204 q 349 -93 325 -118 q 411 -68 374 -68 z "},"ļ":{"ha":410,"x_min":113,"x_max":299,"o":"m 285 0 l 125 0 l 125 1031 l 285 1031 l 285 0 m 214 -68 q 274 -92 249 -68 q 299 -157 299 -117 q 274 -229 299 -193 l 194 -349 l 113 -349 l 165 -229 q 128 -157 128 -204 q 152 -93 128 -118 q 214 -68 176 -68 z "},"Ľ":{"ha":742,"x_min":128,"x_max":713,"o":"m 713 149 l 713 0 l 128 0 l 128 972 l 292 972 l 292 149 l 713 149 m 507 647 l 560 768 q 522 840 522 793 q 547 904 522 879 q 608 929 571 929 q 668 905 643 929 q 693 840 693 881 q 668 767 693 803 l 589 647 l 507 647 z "},"ľ":{"ha":444,"x_min":125,"x_max":522,"o":"m 125 1031 l 285 1031 l 285 0 l 125 0 l 125 1031 m 438 951 q 497 927 472 951 q 522 863 522 903 q 497 789 522 825 l 418 669 l 336 669 l 389 790 q 351 863 351 815 q 376 926 351 901 q 438 951 400 951 z "},"Ŀ":{"ha":742,"x_min":128,"x_max":713,"o":"m 292 149 l 713 149 l 713 0 l 128 0 l 128 972 l 292 972 l 292 149 m 490 709 q 502 721 490 709 q 550 733 514 733 q 610 709 586 733 q 633 646 633 685 q 610 582 633 607 q 550 557 586 557 q 490 582 514 557 q 467 646 467 607 q 490 709 467 685 z "},"ŀ":{"ha":463,"x_min":125,"x_max":507,"o":"m 285 0 l 125 0 l 125 1031 l 285 1031 l 285 0 m 422 519 q 483 494 458 519 q 507 429 507 468 q 483 367 507 392 q 422 342 458 342 q 360 367 385 342 q 336 429 336 392 q 360 494 336 468 q 422 519 385 519 z "},"Ł":{"ha":765,"x_min":8,"x_max":736,"o":"m 736 149 l 736 0 l 151 0 l 151 511 l 36 478 l 8 583 l 151 625 l 151 972 l 314 972 l 314 674 l 536 739 l 564 632 l 314 558 l 314 149 l 736 149 z "},"ł":{"ha":431,"x_min":-29,"x_max":468,"o":"m 308 585 l 308 0 l 149 0 l 149 539 l -1 494 l -29 600 l 149 653 l 149 1031 l 308 1031 l 308 700 l 440 739 l 468 632 l 308 585 z "},"Ń":{"ha":1100,"x_min":128,"x_max":971,"o":"m 768 1214 l 599 1078 l 457 1078 l 604 1283 l 768 1214 m 971 0 l 810 0 l 292 697 l 292 0 l 128 0 l 128 972 l 289 972 l 810 274 l 810 972 l 971 972 l 971 0 z "},"ń":{"ha":921,"x_min":118,"x_max":825,"o":"m 529 844 l 388 844 l 535 1050 l 699 981 l 529 844 m 550 744 q 752 669 679 744 q 825 460 825 593 l 825 0 l 665 0 l 665 415 q 618 547 665 499 q 488 594 571 594 q 342 538 399 593 q 278 393 286 482 l 278 0 l 118 0 l 118 739 l 278 739 l 278 597 q 550 744 353 744 z "},"Ņ":{"ha":1100,"x_min":128,"x_max":971,"o":"m 971 972 l 971 0 l 810 0 l 292 697 l 292 0 l 128 0 l 128 972 l 289 972 l 810 274 l 810 972 l 971 972 m 558 -68 q 618 -92 593 -68 q 643 -157 643 -117 q 618 -229 643 -193 l 539 -349 l 457 -349 l 510 -229 q 472 -157 472 -204 q 497 -93 472 -118 q 558 -68 521 -68 z "},"ņ":{"ha":921,"x_min":118,"x_max":825,"o":"m 550 744 q 752 669 679 744 q 825 460 825 593 l 825 0 l 665 0 l 665 415 q 618 547 665 499 q 488 594 571 594 q 342 538 399 593 q 278 393 286 482 l 278 0 l 118 0 l 118 739 l 278 739 l 278 597 q 550 744 353 744 m 475 -68 q 535 -92 510 -68 q 560 -157 560 -117 q 535 -229 560 -193 l 456 -349 l 374 -349 l 426 -229 q 389 -157 389 -204 q 413 -93 389 -118 q 475 -68 438 -68 z "},"Ň":{"ha":1100,"x_min":128,"x_max":971,"o":"m 317 1278 l 458 1278 l 546 1149 l 633 1278 l 775 1278 l 625 1069 l 467 1069 l 317 1278 m 971 0 l 810 0 l 292 697 l 292 0 l 128 0 l 128 972 l 289 972 l 810 274 l 810 972 l 971 972 l 971 0 z "},"ň":{"ha":921,"x_min":118,"x_max":825,"o":"m 397 836 l 247 1044 l 389 1044 l 476 915 l 564 1044 l 706 1044 l 556 836 l 397 836 m 550 744 q 752 669 679 744 q 825 460 825 593 l 825 0 l 665 0 l 665 415 q 618 547 665 499 q 488 594 571 594 q 342 538 399 593 q 278 393 286 482 l 278 0 l 118 0 l 118 739 l 278 739 l 278 597 q 550 744 353 744 z "},"Ō":{"ha":1125,"x_min":47,"x_max":1078,"o":"m 733 1124 l 379 1124 l 379 1239 l 733 1239 l 733 1124 m 196 835 q 270 906 196 835 q 563 976 344 976 q 929 835 781 976 q 1078 486 1078 694 q 929 135 1078 278 q 563 -7 781 -7 q 196 135 344 -7 q 47 486 47 278 q 196 835 47 694 m 564 829 q 317 730 419 829 q 214 486 214 631 q 317 241 214 342 q 564 140 421 140 q 808 241 707 140 q 910 486 910 342 q 808 730 910 631 q 564 829 707 829 z "},"ō":{"ha":868,"x_min":49,"x_max":819,"o":"m 611 890 l 257 890 l 257 1006 l 611 1006 l 611 890 m 435 744 q 713 641 606 744 q 819 369 819 538 q 713 99 819 203 q 435 -6 606 -6 q 156 99 263 -6 q 49 369 49 203 q 156 641 49 538 q 435 744 263 744 m 435 607 q 272 540 335 607 q 208 368 208 474 q 272 194 208 261 q 435 128 335 128 q 597 194 535 128 q 660 368 660 261 q 597 540 660 474 q 435 607 533 607 z "},"Ő":{"ha":1125,"x_min":47,"x_max":1078,"o":"m 604 1228 l 476 1075 l 353 1075 l 468 1289 l 604 1228 m 833 1228 l 706 1075 l 582 1075 l 697 1289 l 833 1228 m 196 835 q 270 906 196 835 q 563 976 344 976 q 929 835 781 976 q 1078 486 1078 694 q 929 135 1078 278 q 563 -7 781 -7 q 196 135 344 -7 q 47 486 47 278 q 196 835 47 694 m 564 829 q 317 730 419 829 q 214 486 214 631 q 317 241 214 342 q 564 140 421 140 q 808 241 707 140 q 910 486 910 342 q 808 730 910 631 q 564 829 707 829 z "},"ő":{"ha":868,"x_min":49,"x_max":819,"o":"m 483 994 l 356 842 l 232 842 l 347 1056 l 483 994 m 713 994 l 585 842 l 461 842 l 576 1056 l 713 994 m 435 744 q 713 641 606 744 q 819 369 819 538 q 713 99 819 203 q 435 -6 606 -6 q 156 99 263 -6 q 49 369 49 203 q 156 641 49 538 q 435 744 263 744 m 435 607 q 272 540 335 607 q 208 368 208 474 q 272 194 208 261 q 435 128 335 128 q 597 194 535 128 q 660 368 660 261 q 597 540 660 474 q 435 607 533 607 z "},"Œ":{"ha":1524,"x_min":47,"x_max":1451,"o":"m 1451 147 l 1451 0 l 561 0 q 196 140 344 0 q 47 486 47 281 q 196 831 47 690 q 561 972 344 972 l 1435 972 l 1435 825 l 904 825 l 904 561 l 1379 561 l 1379 415 l 904 415 l 904 147 l 1451 147 m 740 147 l 740 824 l 563 824 q 315 726 415 824 q 214 485 214 629 q 315 244 214 340 q 563 147 415 147 l 740 147 z "},"œ":{"ha":1444,"x_min":49,"x_max":1399,"o":"m 1031 744 q 1303 632 1203 744 q 1399 335 1404 519 l 811 335 q 888 181 824 238 q 1047 124 951 124 q 1257 210 1171 124 l 1342 119 q 1033 -6 1225 -6 q 736 158 826 -6 q 435 -6 643 -6 q 156 99 263 -6 q 49 369 49 203 q 156 641 49 538 q 435 744 263 744 q 615 701 538 744 q 736 581 693 658 q 1031 744 831 744 m 811 421 l 1239 421 q 1179 569 1236 513 q 1032 626 1122 626 q 883 570 943 626 q 811 421 824 514 m 272 194 q 303 161 272 194 q 435 128 335 128 q 597 194 535 128 q 660 368 660 261 q 597 540 660 474 q 435 607 533 607 q 272 540 335 607 q 208 368 208 474 q 272 194 208 261 z "},"Ŕ":{"ha":1004,"x_min":128,"x_max":931,"o":"m 542 1078 l 400 1078 l 547 1283 l 711 1214 l 542 1078 m 744 0 l 567 294 q 522 293 553 293 l 292 293 l 292 0 l 128 0 l 128 972 l 522 972 q 811 885 708 972 q 914 640 914 799 q 862 443 914 524 q 713 325 810 363 l 931 0 l 744 0 m 292 440 l 522 440 q 758 636 758 440 q 522 825 758 825 l 292 825 l 292 440 z "},"ŕ":{"ha":547,"x_min":118,"x_max":533,"o":"m 331 844 l 189 844 l 336 1050 l 500 981 l 331 844 m 278 739 l 278 592 q 533 744 354 744 l 533 592 q 356 540 424 597 q 278 386 288 483 l 278 0 l 118 0 l 118 739 l 278 739 z "},"Ŗ":{"ha":1004,"x_min":128,"x_max":931,"o":"m 931 0 l 744 0 l 567 294 q 522 293 553 293 l 292 293 l 292 0 l 128 0 l 128 972 l 522 972 q 811 885 708 972 q 914 640 914 799 q 862 443 914 524 q 713 325 810 363 l 931 0 m 292 440 l 522 440 q 758 636 758 440 q 522 825 758 825 l 292 825 l 292 440 m 508 -68 q 568 -92 543 -68 q 593 -157 593 -117 q 568 -229 593 -193 l 489 -349 l 407 -349 l 460 -229 q 422 -157 422 -204 q 447 -93 422 -118 q 508 -68 471 -68 z "},"ŗ":{"ha":547,"x_min":101,"x_max":533,"o":"m 278 739 l 278 592 q 533 744 354 744 l 533 592 q 356 540 424 597 q 278 386 288 483 l 278 0 l 118 0 l 118 739 l 278 739 m 203 -68 q 263 -92 238 -68 q 288 -157 288 -117 q 263 -229 288 -193 l 183 -349 l 101 -349 l 154 -229 q 117 -157 117 -204 q 141 -93 117 -118 q 203 -68 165 -68 z "},"Ř":{"ha":1004,"x_min":128,"x_max":931,"o":"m 410 1069 l 260 1278 l 401 1278 l 489 1149 l 576 1278 l 718 1278 l 568 1069 l 410 1069 m 744 0 l 567 294 q 522 293 553 293 l 292 293 l 292 0 l 128 0 l 128 972 l 522 972 q 811 885 708 972 q 914 640 914 799 q 862 443 914 524 q 713 325 810 363 l 931 0 l 744 0 m 292 440 l 522 440 q 758 636 758 440 q 522 825 758 825 l 292 825 l 292 440 z "},"ř":{"ha":547,"x_min":49,"x_max":533,"o":"m 199 836 l 49 1044 l 190 1044 l 278 915 l 365 1044 l 507 1044 l 357 836 l 199 836 m 278 739 l 278 592 q 533 744 354 744 l 533 592 q 356 540 424 597 q 278 386 288 483 l 278 0 l 118 0 l 118 739 l 278 739 z "},"Ś":{"ha":864,"x_min":36,"x_max":800,"o":"m 661 1214 l 492 1078 l 350 1078 l 497 1283 l 661 1214 m 447 979 q 788 879 636 979 l 719 735 q 435 825 571 825 q 319 799 361 825 q 276 724 276 772 q 315 641 276 675 q 413 591 354 607 q 539 551 471 575 q 665 499 607 526 q 762 415 724 472 q 800 275 800 357 q 698 71 800 147 q 433 -6 596 -6 q 218 36 322 -6 q 36 149 114 78 l 107 290 q 269 185 181 222 q 436 149 357 149 q 570 180 522 149 q 618 267 618 211 q 579 351 618 317 q 482 401 540 385 q 356 440 424 417 q 229 488 288 463 q 132 571 171 514 q 93 708 93 628 q 190 906 93 832 q 447 979 288 979 z "},"ś":{"ha":653,"x_min":29,"x_max":610,"o":"m 553 981 l 383 844 l 242 844 l 389 1050 l 553 981 m 339 746 q 597 671 492 746 l 539 553 q 326 618 433 618 q 218 544 218 618 q 258 485 218 508 q 356 445 299 461 q 472 408 414 429 q 569 338 529 386 q 610 214 610 289 q 528 51 610 107 q 326 -6 447 -6 q 163 22 243 -6 q 29 97 83 49 l 86 211 q 202 144 133 169 q 333 119 271 119 q 421 139 388 119 q 454 199 454 158 q 414 265 454 240 q 317 306 374 290 q 203 342 260 321 q 106 410 146 363 q 67 532 67 458 q 145 692 67 638 q 339 746 224 746 z "},"Ş":{"ha":864,"x_min":36,"x_max":800,"o":"m 319 799 q 298 785 319 799 q 276 724 276 772 q 315 641 276 675 q 413 591 354 607 q 539 551 471 575 q 665 499 607 526 q 762 415 724 472 q 800 275 800 357 q 721 90 800 163 q 508 -1 642 17 l 476 -69 q 547 -106 521 -78 q 574 -179 574 -135 q 531 -275 574 -239 q 426 -311 489 -311 q 304 -272 357 -311 l 335 -197 q 415 -225 371 -225 q 462 -208 444 -225 q 479 -168 479 -190 q 462 -131 479 -146 q 413 -115 444 -115 q 364 -122 389 -115 l 414 -6 q 36 149 196 3 l 107 290 q 269 185 181 222 q 436 149 357 149 q 570 180 522 149 q 618 267 618 211 q 579 351 618 317 q 482 401 540 385 q 356 440 424 417 q 229 488 288 463 q 132 571 171 514 q 93 708 93 628 q 190 906 93 832 q 447 979 288 979 q 788 879 636 979 l 719 735 q 435 825 571 825 q 319 799 361 825 z "},"ş":{"ha":653,"x_min":29,"x_max":610,"o":"m 218 544 q 258 485 218 508 q 356 445 299 461 q 472 408 414 429 q 569 338 529 386 q 610 214 610 289 q 550 68 610 122 q 396 0 490 14 l 363 -69 q 433 -106 407 -78 q 460 -179 460 -135 q 417 -275 460 -239 q 313 -311 375 -311 q 190 -272 243 -311 l 221 -197 q 301 -225 257 -225 q 348 -208 331 -225 q 365 -168 365 -190 q 348 -131 365 -146 q 299 -115 331 -115 q 250 -122 275 -115 l 300 -4 q 29 97 135 3 l 86 211 q 202 144 133 169 q 333 119 271 119 q 421 139 388 119 q 454 199 454 158 q 414 265 454 240 q 317 306 374 290 q 203 342 260 321 q 106 410 146 363 q 67 532 67 458 q 145 692 67 638 q 339 746 224 746 q 597 671 492 746 l 539 553 q 326 618 433 618 q 218 544 218 618 z "},"Š":{"ha":864,"x_min":36,"x_max":800,"o":"m 210 1278 l 351 1278 l 439 1149 l 526 1278 l 668 1278 l 518 1069 l 360 1069 l 210 1278 m 447 979 q 788 879 636 979 l 719 735 q 435 825 571 825 q 319 799 361 825 q 276 724 276 772 q 315 641 276 675 q 413 591 354 607 q 539 551 471 575 q 665 499 607 526 q 762 415 724 472 q 800 275 800 357 q 698 71 800 147 q 433 -6 596 -6 q 218 36 322 -6 q 36 149 114 78 l 107 290 q 269 185 181 222 q 436 149 357 149 q 570 180 522 149 q 618 267 618 211 q 579 351 618 317 q 482 401 540 385 q 356 440 424 417 q 229 488 288 463 q 132 571 171 514 q 93 708 93 628 q 190 906 93 832 q 447 979 288 979 z "},"š":{"ha":653,"x_min":29,"x_max":610,"o":"m 101 1044 l 243 1044 l 331 915 l 418 1044 l 560 1044 l 410 836 l 251 836 l 101 1044 m 339 746 q 597 671 492 746 l 539 553 q 326 618 433 618 q 218 544 218 618 q 258 485 218 508 q 356 445 299 461 q 472 408 414 429 q 569 338 529 386 q 610 214 610 289 q 528 51 610 107 q 326 -6 447 -6 q 163 22 243 -6 q 29 97 83 49 l 86 211 q 202 144 133 169 q 333 119 271 119 q 421 139 388 119 q 454 199 454 158 q 414 265 454 240 q 317 306 374 290 q 203 342 260 321 q 106 410 146 363 q 67 532 67 458 q 145 692 67 638 q 339 746 224 746 z "},"Ţ":{"ha":804,"x_min":13,"x_max":792,"o":"m 454 0 l 421 -69 q 492 -106 465 -78 q 518 -179 518 -135 q 476 -275 518 -239 q 371 -311 433 -311 q 249 -272 301 -311 l 279 -197 q 360 -225 315 -225 q 406 -208 389 -225 q 424 -168 424 -190 q 406 -131 424 -146 q 357 -115 389 -115 q 308 -122 333 -115 l 360 0 l 319 0 l 319 825 l 13 825 l 13 972 l 792 972 l 792 825 l 483 825 l 483 0 l 454 0 z "},"ţ":{"ha":565,"x_min":43,"x_max":536,"o":"m 410 -1 l 378 -69 q 449 -106 422 -78 q 475 -179 475 -135 q 433 -275 475 -239 q 328 -311 390 -311 q 206 -272 258 -311 l 236 -197 q 317 -225 272 -225 q 363 -208 346 -225 q 381 -168 381 -190 q 363 -131 381 -146 q 314 -115 346 -115 q 265 -122 290 -115 l 315 -4 q 194 60 240 7 q 147 208 147 114 l 147 592 l 43 592 l 43 711 l 147 711 l 147 914 l 306 914 l 306 711 l 524 711 l 524 592 l 306 592 l 306 238 q 325 160 306 182 q 385 138 344 138 q 496 169 429 138 l 536 47 q 410 -1 475 10 z "},"Ť":{"ha":804,"x_min":13,"x_max":792,"o":"m 179 1278 l 321 1278 l 408 1149 l 496 1278 l 638 1278 l 488 1069 l 329 1069 l 179 1278 m 792 825 l 483 825 l 483 0 l 319 0 l 319 825 l 13 825 l 13 972 l 792 972 l 792 825 z "},"ť":{"ha":531,"x_min":43,"x_max":571,"o":"m 486 1096 q 546 1072 521 1096 q 571 1007 571 1047 q 546 933 571 969 l 467 814 l 385 814 l 438 935 q 400 1007 400 960 q 424 1071 400 1046 q 486 1096 449 1096 m 385 138 q 496 169 429 138 l 536 47 q 354 -7 444 -7 q 206 47 264 -7 q 147 208 147 101 l 147 592 l 43 592 l 43 711 l 147 711 l 147 914 l 306 914 l 306 711 l 524 711 l 524 592 l 306 592 l 306 238 q 325 160 306 182 q 385 138 344 138 z "},"Ū":{"ha":1061,"x_min":108,"x_max":954,"o":"m 708 1124 l 354 1124 l 354 1239 l 708 1239 l 708 1124 m 954 972 l 954 403 q 842 103 954 213 q 532 -7 729 -7 q 222 103 335 -7 q 108 403 108 213 l 108 972 l 272 972 l 272 403 q 342 210 272 281 q 533 140 413 140 q 722 210 653 140 q 790 403 790 279 l 790 972 l 954 972 z "},"ū":{"ha":907,"x_min":94,"x_max":789,"o":"m 626 890 l 272 890 l 272 1006 l 626 1006 l 626 890 m 789 739 l 789 0 l 629 0 l 629 144 q 365 -6 557 -3 q 167 71 239 -6 q 94 279 94 147 l 94 739 l 254 739 l 254 324 q 300 192 254 240 q 426 144 346 144 q 574 210 519 146 q 629 375 629 275 l 629 739 l 789 739 z "},"Ů":{"ha":1061,"x_min":108,"x_max":954,"o":"m 415 1298 q 439 1322 415 1298 q 531 1346 463 1346 q 647 1298 599 1346 q 694 1185 694 1250 q 647 1071 694 1118 q 531 1024 599 1024 q 415 1071 463 1024 q 367 1185 367 1118 q 415 1298 367 1250 m 597 1247 q 583 1260 597 1247 q 531 1274 569 1274 q 464 1247 492 1274 q 436 1185 436 1221 q 464 1122 436 1149 q 531 1096 492 1096 q 597 1122 569 1096 q 625 1185 625 1149 q 597 1247 625 1221 m 954 972 l 954 403 q 842 103 954 213 q 532 -7 729 -7 q 222 103 335 -7 q 108 403 108 213 l 108 972 l 272 972 l 272 403 q 342 210 272 281 q 533 140 413 140 q 722 210 653 140 q 790 403 790 279 l 790 972 l 954 972 z "},"ů":{"ha":907,"x_min":94,"x_max":789,"o":"m 565 838 q 541 814 565 838 q 449 790 517 790 q 333 838 381 790 q 285 951 285 885 q 333 1065 285 1017 q 449 1113 381 1113 q 565 1065 517 1113 q 613 951 613 1017 q 565 838 613 885 m 515 1014 q 501 1027 515 1014 q 449 1040 488 1040 q 382 1014 410 1040 q 354 951 354 988 q 382 889 354 915 q 449 863 410 863 q 515 889 488 863 q 543 951 543 915 q 515 1014 543 988 m 789 739 l 789 0 l 629 0 l 629 144 q 365 -6 557 -3 q 167 71 239 -6 q 94 279 94 147 l 94 739 l 254 739 l 254 324 q 300 192 254 240 q 426 144 346 144 q 574 210 519 146 q 629 375 629 275 l 629 739 l 789 739 z "},"Ű":{"ha":1061,"x_min":108,"x_max":954,"o":"m 579 1228 l 451 1075 l 328 1075 l 443 1289 l 579 1228 m 808 1228 l 681 1075 l 557 1075 l 672 1289 l 808 1228 m 954 972 l 954 403 q 842 103 954 213 q 532 -7 729 -7 q 222 103 335 -7 q 108 403 108 213 l 108 972 l 272 972 l 272 403 q 342 210 272 281 q 533 140 413 140 q 722 210 653 140 q 790 403 790 279 l 790 972 l 954 972 z "},"ű":{"ha":907,"x_min":94,"x_max":789,"o":"m 369 842 l 246 842 l 361 1056 l 497 994 l 369 842 m 475 842 l 590 1056 l 726 994 l 599 842 l 475 842 m 789 739 l 789 0 l 629 0 l 629 144 q 365 -6 557 -3 q 167 71 239 -6 q 94 279 94 147 l 94 739 l 254 739 l 254 324 q 300 192 254 240 q 426 144 346 144 q 574 210 519 146 q 629 375 629 275 l 629 739 l 789 739 z "},"Ų":{"ha":1063,"x_min":108,"x_max":954,"o":"m 954 972 l 954 403 q 880 148 954 250 q 672 10 806 46 q 599 -146 599 -97 q 610 -178 599 -167 q 639 -190 621 -190 q 708 -146 674 -190 l 754 -200 q 622 -279 704 -279 q 545 -252 578 -279 q 513 -171 513 -225 q 579 -6 513 -103 q 532 -7 564 -7 q 222 103 335 -7 q 108 403 108 213 l 108 972 l 271 972 l 271 403 q 342 210 271 281 q 533 140 413 140 q 722 210 653 140 q 790 403 790 279 l 790 972 l 954 972 z "},"ų":{"ha":900,"x_min":96,"x_max":839,"o":"m 788 0 l 753 0 q 683 -146 683 -93 q 725 -190 683 -190 q 793 -146 758 -190 l 839 -200 q 707 -279 789 -279 q 630 -251 663 -279 q 597 -171 597 -224 q 669 0 597 -103 l 629 0 l 629 138 q 365 -6 554 -3 q 167 70 239 -6 q 96 279 96 146 l 96 739 l 254 739 l 254 324 q 301 192 254 240 q 428 144 347 144 q 567 202 514 146 q 629 346 621 258 l 629 739 l 788 739 l 788 0 z "},"Ŵ":{"ha":1439,"x_min":4,"x_max":1453,"o":"m 943 1082 l 813 1082 l 726 1204 l 640 1082 l 510 1082 l 653 1278 l 800 1278 l 943 1082 m 1128 0 l 960 0 l 729 758 l 496 0 l 326 0 l 4 972 l 181 972 l 417 182 l 651 971 l 813 972 l 1049 182 l 1283 972 l 1453 972 l 1128 0 z "},"ŵ":{"ha":1240,"x_min":1,"x_max":1247,"o":"m 838 849 l 707 849 l 621 971 l 535 849 l 404 849 l 547 1044 l 694 1044 l 838 849 m 978 0 l 813 0 l 625 547 l 438 0 l 274 0 l 1 739 l 165 739 l 357 158 l 543 739 l 708 739 l 896 158 l 1085 739 l 1247 739 l 978 0 z "},"Ŷ":{"ha":885,"x_min":1,"x_max":883,"o":"m 356 1082 l 225 1082 l 368 1278 l 515 1278 l 658 1082 l 528 1082 l 442 1204 l 356 1082 m 526 324 l 526 0 l 364 0 l 364 318 l 1 972 l 167 972 l 444 499 l 717 972 l 883 972 l 526 324 z "},"ŷ":{"ha":738,"x_min":-7,"x_max":744,"o":"m 588 849 l 457 849 l 371 971 l 285 849 l 154 849 l 297 1044 l 444 1044 l 588 849 m 744 739 l 408 -101 q 168 -276 340 -276 q -3 -214 72 -276 l 65 -90 q 161 -126 115 -126 q 274 -44 236 -126 l 299 11 l -7 739 l 158 739 l 379 179 l 585 739 l 744 739 z "},"Ÿ":{"ha":885,"x_min":1,"x_max":883,"o":"m 379 1128 q 367 1115 379 1128 q 319 1103 356 1103 q 259 1128 283 1103 q 235 1190 235 1153 q 259 1254 235 1229 q 319 1279 283 1279 q 379 1254 356 1279 q 403 1190 403 1229 q 379 1128 403 1153 m 625 1128 q 613 1115 625 1128 q 565 1103 601 1103 q 505 1128 529 1103 q 481 1190 481 1153 q 505 1254 481 1229 q 565 1279 529 1279 q 625 1254 601 1279 q 649 1190 649 1229 q 625 1128 649 1153 m 526 324 l 526 0 l 364 0 l 364 318 l 1 972 l 167 972 l 444 499 l 717 972 l 883 972 l 526 324 z "},"Ź":{"ha":925,"x_min":51,"x_max":872,"o":"m 693 1214 l 524 1078 l 382 1078 l 529 1283 l 693 1214 m 865 854 l 274 147 l 872 147 l 872 0 l 51 0 l 51 118 l 644 825 l 69 825 l 69 972 l 865 972 l 865 854 z "},"ź":{"ha":746,"x_min":63,"x_max":694,"o":"m 590 981 l 421 844 l 279 844 l 426 1050 l 590 981 m 682 631 l 260 131 l 694 129 l 694 -1 l 63 0 l 63 108 l 485 608 l 75 608 l 75 739 l 682 738 l 682 631 z "},"Ż":{"ha":925,"x_min":51,"x_max":872,"o":"m 408 1253 q 422 1267 408 1253 q 475 1281 435 1281 q 542 1253 515 1281 q 568 1183 568 1226 q 542 1115 568 1142 q 475 1088 515 1088 q 408 1115 435 1088 q 382 1183 382 1142 q 408 1253 382 1226 m 865 854 l 274 147 l 872 147 l 872 0 l 51 0 l 51 118 l 644 825 l 69 825 l 69 972 l 865 972 l 865 854 z "},"ż":{"ha":746,"x_min":63,"x_max":694,"o":"m 306 1020 q 319 1034 306 1020 q 372 1047 332 1047 q 439 1020 413 1047 q 465 950 465 993 q 439 881 465 908 q 372 854 413 854 q 306 881 332 854 q 279 950 279 908 q 306 1020 279 993 m 682 631 l 260 131 l 694 129 l 694 -1 l 63 0 l 63 108 l 485 608 l 75 608 l 75 739 l 682 738 l 682 631 z "},"Ž":{"ha":925,"x_min":51,"x_max":872,"o":"m 242 1278 l 383 1278 l 471 1149 l 558 1278 l 700 1278 l 550 1069 l 392 1069 l 242 1278 m 865 854 l 274 147 l 872 147 l 872 0 l 51 0 l 51 118 l 644 825 l 69 825 l 69 972 l 865 972 l 865 854 z "},"ž":{"ha":746,"x_min":63,"x_max":694,"o":"m 139 1044 l 281 1044 l 368 915 l 456 1044 l 597 1044 l 447 836 l 289 836 l 139 1044 m 682 631 l 260 131 l 694 129 l 694 -1 l 63 0 l 63 108 l 485 608 l 75 608 l 75 739 l 682 738 l 682 631 z "},"ƒ":{"ha":517,"x_min":-165,"x_max":619,"o":"m 464 910 q 377 878 413 911 q 335 788 342 844 l 317 644 l 511 644 l 499 533 l 304 533 l 233 -42 q 155 -215 219 -151 q -14 -276 90 -278 q -165 -224 -103 -274 l -121 -106 q -31 -143 -82 -140 q 44 -111 17 -144 q 78 -18 71 -78 l 146 533 l 50 533 l 63 644 l 158 644 l 179 810 q 264 982 193 918 q 442 1044 335 1046 q 619 992 546 1042 l 563 874 q 464 910 517 910 z "},"Ș":{"ha":864,"x_min":36,"x_max":800,"o":"m 319 799 q 298 785 319 799 q 276 724 276 772 q 315 641 276 675 q 413 591 354 607 q 539 551 471 575 q 665 499 607 526 q 762 415 724 472 q 800 275 800 357 q 698 71 800 147 q 433 -6 596 -6 q 218 36 322 -6 q 36 149 114 78 l 107 290 q 269 185 181 222 q 436 149 357 149 q 570 180 522 149 q 618 267 618 211 q 579 351 618 317 q 482 401 540 385 q 356 440 424 417 q 229 488 288 463 q 132 571 171 514 q 93 708 93 628 q 190 906 93 832 q 447 979 288 979 q 788 879 636 979 l 719 735 q 435 825 571 825 q 319 799 361 825 m 447 -68 q 507 -92 482 -68 q 532 -157 532 -117 q 507 -229 532 -193 l 428 -349 l 346 -349 l 399 -229 q 361 -157 361 -204 q 385 -93 361 -118 q 447 -68 410 -68 z "},"ș":{"ha":653,"x_min":29,"x_max":610,"o":"m 218 544 q 258 485 218 508 q 356 445 299 461 q 472 408 414 429 q 569 338 529 386 q 610 214 610 289 q 528 51 610 107 q 326 -6 447 -6 q 163 22 243 -6 q 29 97 83 49 l 86 211 q 202 144 133 169 q 333 119 271 119 q 421 139 388 119 q 454 199 454 158 q 414 265 454 240 q 317 306 374 290 q 203 342 260 321 q 106 410 146 363 q 67 532 67 458 q 145 692 67 638 q 339 746 224 746 q 597 671 492 746 l 539 553 q 326 618 433 618 q 218 544 218 618 m 333 -68 q 393 -92 368 -68 q 418 -157 418 -117 q 393 -229 418 -193 l 314 -349 l 232 -349 l 285 -229 q 247 -157 247 -204 q 272 -93 247 -118 q 333 -68 296 -68 z "},"Ț":{"ha":804,"x_min":13,"x_max":792,"o":"m 792 972 l 792 825 l 483 825 l 483 0 l 319 0 l 319 825 l 13 825 l 13 972 l 792 972 m 392 -68 q 451 -92 426 -68 q 476 -157 476 -117 q 451 -229 476 -193 l 372 -349 l 290 -349 l 343 -229 q 306 -157 306 -204 q 330 -93 306 -118 q 392 -68 354 -68 z "},"ț":{"ha":565,"x_min":43,"x_max":536,"o":"m 496 169 l 536 47 q 354 -7 444 -7 q 206 47 264 -7 q 147 208 147 101 l 147 592 l 43 592 l 43 711 l 147 711 l 147 914 l 306 914 l 306 711 l 524 711 l 524 592 l 306 592 l 306 238 q 325 160 306 182 q 385 138 344 138 q 496 169 429 138 m 349 -68 q 408 -92 383 -68 q 433 -157 433 -117 q 408 -229 433 -193 l 329 -349 l 247 -349 l 300 -229 q 263 -157 263 -204 q 287 -93 263 -118 q 349 -68 311 -68 z "},"ȷ":{"ha":381,"x_min":-126,"x_max":276,"o":"m 276 739 l 276 -33 q 217 -213 276 -150 q 50 -275 157 -276 q -126 -225 -51 -272 l -86 -108 q 17 -142 -39 -139 q 91 -109 65 -143 q 117 -10 117 -75 l 117 739 l 276 739 z "},"ˆ":{"ha":486,"x_min":26,"x_max":460,"o":"m 460 853 l 329 853 l 243 975 l 157 853 l 26 853 l 169 1049 l 317 1049 l 460 853 z "},"ˇ":{"ha":486,"x_min":14,"x_max":472,"o":"m 14 1049 l 156 1049 l 243 919 l 331 1049 l 472 1049 l 322 840 l 164 840 l 14 1049 z "},"ˉ":{"ha":486,"x_min":67,"x_max":421,"o":"m 421 890 l 67 890 l 67 1006 l 421 1006 l 421 890 z "},"˘":{"ha":486,"x_min":47,"x_max":439,"o":"m 331 1040 l 439 1040 q 381 898 436 953 q 243 843 326 843 q 105 898 160 843 q 47 1040 50 953 l 156 1040 q 183 975 158 1000 q 243 950 207 950 q 303 975 279 950 q 331 1040 328 1000 z "},"˙":{"ha":486,"x_min":150,"x_max":336,"o":"m 176 1020 q 190 1034 176 1020 q 243 1047 203 1047 q 310 1020 283 1047 q 336 950 336 993 q 310 881 336 908 q 243 854 283 854 q 176 881 203 854 q 150 950 150 908 q 176 1020 150 993 z "},"˚":{"ha":486,"x_min":79,"x_max":407,"o":"m 127 1065 q 151 1089 127 1065 q 243 1113 175 1113 q 359 1065 311 1113 q 407 951 407 1017 q 359 838 407 885 q 243 790 311 790 q 127 838 175 790 q 79 951 79 885 q 127 1065 79 1017 m 310 1014 q 296 1027 310 1014 q 243 1040 282 1040 q 176 1014 204 1040 q 149 951 149 988 q 176 889 149 915 q 243 863 204 863 q 310 889 282 863 q 338 951 338 915 q 310 1014 338 988 z "},"˛":{"ha":486,"x_min":124,"x_max":365,"o":"m 207 17 l 289 17 q 208 -146 208 -92 q 220 -178 208 -167 q 251 -190 232 -190 q 319 -146 285 -190 l 365 -200 q 233 -279 315 -279 q 156 -252 189 -279 q 124 -171 124 -225 q 207 17 124 -96 z "},"˜":{"ha":486,"x_min":19,"x_max":467,"o":"m 147 1053 q 241 1015 189 1053 q 313 976 293 976 q 365 1044 365 976 l 467 1044 q 340 863 467 863 q 244 901 294 863 q 174 939 193 939 q 122 871 122 939 l 19 871 q 147 1053 19 1053 z "},"˝":{"ha":486,"x_min":3,"x_max":483,"o":"m 254 999 l 126 846 l 3 846 l 118 1060 l 254 999 m 483 999 l 356 846 l 232 846 l 347 1060 l 483 999 z "},"̦":{"ha":0,"x_min":50,"x_max":236,"o":"m 151 -68 q 211 -92 186 -68 q 236 -157 236 -117 q 211 -229 236 -193 l 132 -349 l 50 -349 l 103 -229 q 65 -157 65 -204 q 90 -93 65 -118 q 151 -68 114 -68 z "},"Δ":{"ha":1025,"x_min":1,"x_max":1024,"o":"m 1024 0 l 1 0 l 431 972 l 599 972 l 1024 0 m 793 129 l 510 797 l 226 129 l 793 129 z "},"π":{"ha":1007,"x_min":-14,"x_max":993,"o":"m 993 617 l 789 617 l 789 0 l 656 0 l 656 617 l 451 617 l 382 0 l 249 0 l 317 617 l 246 617 q 149 584 188 617 q 113 500 111 551 q 149 394 113 449 l 38 351 q -14 528 -11 432 q 53 678 -15 618 q 226 739 122 739 l 993 739 l 993 617 z "},"Ẁ":{"ha":1439,"x_min":4,"x_max":1453,"o":"m 813 1079 l 671 1079 l 501 1215 l 665 1285 l 813 1079 m 1128 0 l 960 0 l 729 758 l 496 0 l 326 0 l 4 972 l 181 972 l 417 182 l 651 971 l 813 972 l 1049 182 l 1283 972 l 1453 972 l 1128 0 z "},"ẁ":{"ha":1240,"x_min":1,"x_max":1247,"o":"m 707 846 l 565 846 l 396 982 l 560 1051 l 707 846 m 978 0 l 813 0 l 625 547 l 438 0 l 274 0 l 1 739 l 165 739 l 357 158 l 543 739 l 708 739 l 896 158 l 1085 739 l 1247 739 l 978 0 z "},"Ẃ":{"ha":1439,"x_min":4,"x_max":1453,"o":"m 944 1214 l 775 1078 l 633 1078 l 781 1283 l 944 1214 m 1128 0 l 960 0 l 729 758 l 496 0 l 326 0 l 4 972 l 181 972 l 417 182 l 651 971 l 813 972 l 1049 182 l 1283 972 l 1453 972 l 1128 0 z "},"ẃ":{"ha":1240,"x_min":1,"x_max":1247,"o":"m 839 981 l 669 844 l 528 844 l 675 1050 l 839 981 m 978 0 l 813 0 l 625 547 l 438 0 l 274 0 l 1 739 l 165 739 l 357 158 l 543 739 l 708 739 l 896 158 l 1085 739 l 1247 739 l 978 0 z "},"Ẅ":{"ha":1439,"x_min":4,"x_max":1453,"o":"m 544 1254 q 556 1267 544 1254 q 604 1279 568 1279 q 664 1254 640 1279 q 688 1190 688 1229 q 664 1128 688 1153 q 604 1103 640 1103 q 544 1128 568 1103 q 519 1190 519 1153 q 544 1254 519 1229 m 790 1254 q 802 1267 790 1254 q 850 1279 814 1279 q 910 1254 886 1279 q 933 1190 933 1229 q 910 1128 933 1153 q 850 1103 886 1103 q 790 1128 814 1103 q 765 1190 765 1153 q 790 1254 765 1229 m 1128 0 l 960 0 l 729 758 l 496 0 l 326 0 l 4 972 l 181 972 l 417 182 l 651 971 l 813 972 l 1049 182 l 1283 972 l 1453 972 l 1128 0 z "},"ẅ":{"ha":1240,"x_min":1,"x_max":1247,"o":"m 438 1021 q 450 1033 438 1021 q 499 1046 463 1046 q 558 1021 535 1046 q 582 957 582 996 q 558 894 582 919 q 499 869 535 869 q 438 894 463 869 q 414 957 414 919 q 438 1021 414 996 m 684 1021 q 696 1033 684 1021 q 744 1046 708 1046 q 804 1021 781 1046 q 828 957 828 996 q 804 894 828 919 q 744 869 781 869 q 684 894 708 869 q 660 957 660 919 q 684 1021 660 996 m 978 0 l 813 0 l 625 547 l 438 0 l 274 0 l 1 739 l 165 739 l 357 158 l 543 739 l 708 739 l 896 158 l 1085 739 l 1247 739 l 978 0 z "},"Ỳ":{"ha":885,"x_min":1,"x_max":883,"o":"m 386 1079 l 217 1215 l 381 1285 l 528 1079 l 386 1079 m 526 324 l 526 0 l 364 0 l 364 318 l 1 972 l 167 972 l 444 499 l 717 972 l 883 972 l 526 324 z "},"ỳ":{"ha":738,"x_min":-7,"x_max":744,"o":"m 457 846 l 315 846 l 146 982 l 310 1051 l 457 846 m 744 739 l 408 -101 q 168 -276 340 -276 q -3 -214 72 -276 l 65 -90 q 161 -126 115 -126 q 274 -44 236 -126 l 299 11 l -7 739 l 158 739 l 379 179 l 585 739 l 744 739 z "},"–":{"ha":563,"x_min":0,"x_max":563,"o":"m 563 313 l 0 313 l 0 422 l 563 422 l 563 313 z "},"—":{"ha":960,"x_min":0,"x_max":960,"o":"m 960 313 l 0 313 l 0 422 l 960 422 l 960 313 z "},"‘":{"ha":297,"x_min":50,"x_max":236,"o":"m 236 981 l 183 860 q 221 788 221 835 q 197 724 221 749 q 135 699 172 699 q 75 723 100 699 q 50 788 50 747 q 75 860 50 824 l 154 981 l 236 981 z "},"’":{"ha":297,"x_min":50,"x_max":236,"o":"m 151 972 q 211 948 186 972 q 236 883 236 924 q 211 811 236 847 l 132 692 l 50 692 l 103 811 q 65 883 65 836 q 90 947 65 922 q 151 972 114 972 z "},"‚":{"ha":297,"x_min":50,"x_max":236,"o":"m 151 168 q 211 144 186 168 q 236 79 236 119 q 211 6 236 42 l 132 -114 l 50 -114 l 103 7 q 65 79 65 32 q 90 143 65 118 q 151 168 114 168 z "},"“":{"ha":411,"x_min":50,"x_max":443,"o":"m 236 981 l 183 860 q 221 788 221 835 q 197 724 221 749 q 135 699 172 699 q 75 723 100 699 q 50 788 50 747 q 75 861 50 825 l 154 981 l 236 981 m 443 981 l 390 860 q 428 788 428 835 q 403 724 428 749 q 342 699 379 699 q 282 723 307 699 q 257 788 257 747 q 282 861 257 825 l 361 981 l 443 981 z "},"”":{"ha":463,"x_min":50,"x_max":443,"o":"m 151 974 q 211 949 186 974 q 236 885 236 925 q 211 811 236 847 l 132 692 l 50 692 l 103 813 q 65 885 65 838 q 90 949 65 924 q 151 974 114 974 m 358 974 q 418 949 393 974 q 443 885 443 925 q 418 811 443 847 l 339 692 l 257 692 l 310 813 q 272 885 272 838 q 297 949 272 924 q 358 974 321 974 z "},"„":{"ha":504,"x_min":50,"x_max":443,"o":"m 151 168 q 211 144 186 168 q 236 79 236 119 q 211 6 236 42 l 132 -114 l 50 -114 l 103 7 q 65 79 65 32 q 90 143 65 118 q 151 168 114 168 m 358 168 q 418 144 393 168 q 443 79 443 119 q 418 6 443 42 l 339 -114 l 257 -114 l 310 7 q 272 79 272 32 q 297 143 272 118 q 358 168 321 168 z "},"†":{"ha":744,"x_min":21,"x_max":724,"o":"m 446 675 l 724 675 l 724 528 l 446 528 l 446 -264 l 294 -264 l 294 528 l 21 528 l 21 675 l 294 675 l 294 971 l 446 971 l 446 675 z "},"‡":{"ha":744,"x_min":21,"x_max":724,"o":"m 446 528 l 446 207 l 724 207 l 724 61 l 446 61 l 446 -264 l 294 -264 l 294 61 l 21 61 l 21 207 l 294 207 l 294 528 l 21 528 l 21 675 l 294 675 l 294 971 l 446 971 l 446 675 l 724 675 l 724 528 l 446 528 z "},"•":{"ha":390,"x_min":64,"x_max":326,"o":"m 101 470 q 119 489 101 470 q 194 508 138 508 q 289 470 251 508 q 326 372 326 432 q 289 273 326 313 q 194 233 251 233 q 101 273 139 233 q 64 372 64 313 q 101 470 64 432 z "},"…":{"ha":844,"x_min":64,"x_max":781,"o":"m 88 140 q 99 152 88 140 q 147 164 111 164 q 207 140 183 164 q 231 76 231 115 q 207 13 231 38 q 147 -12 183 -12 q 88 13 111 -12 q 64 76 64 38 q 88 140 64 115 m 363 140 q 374 152 363 140 q 422 164 386 164 q 482 140 458 164 q 506 76 506 115 q 482 13 506 38 q 422 -12 458 -12 q 363 13 386 -12 q 339 76 339 38 q 363 140 339 115 m 638 140 q 649 152 638 140 q 697 164 661 164 q 757 140 733 164 q 781 76 781 115 q 757 13 781 38 q 697 -12 733 -12 q 638 13 661 -12 q 614 76 614 38 q 638 140 614 115 z "},"‰":{"ha":1972,"x_min":53,"x_max":1918,"o":"m 122 898 q 156 936 122 898 q 310 975 190 975 q 498 898 429 975 q 567 686 567 821 q 498 472 567 550 q 310 394 429 394 q 122 472 190 394 q 53 686 53 550 q 122 898 53 821 m 236 0 l 951 972 l 1104 972 l 390 0 l 236 0 m 422 830 q 402 855 422 830 q 310 881 382 881 q 199 830 238 881 q 160 686 160 779 q 199 540 160 592 q 310 489 238 489 q 422 541 382 489 q 461 686 461 593 q 422 830 461 779 m 853 499 q 888 538 853 499 q 1042 576 922 576 q 1230 499 1161 576 q 1299 288 1299 422 q 1230 74 1299 151 q 1042 -3 1161 -3 q 853 74 922 -3 q 785 288 785 151 q 853 499 785 422 m 1473 499 q 1507 538 1473 499 q 1661 576 1542 576 q 1849 499 1781 576 q 1918 288 1918 422 q 1849 74 1918 151 q 1661 -3 1781 -3 q 1473 74 1542 -3 q 1404 288 1404 151 q 1473 499 1404 422 m 1153 432 q 1134 458 1153 432 q 1042 483 1114 483 q 931 432 969 483 q 892 288 892 381 q 931 142 892 193 q 1042 92 969 92 q 1153 143 1114 92 q 1193 288 1193 194 q 1153 432 1193 381 m 1773 432 q 1753 458 1773 432 q 1661 483 1733 483 q 1550 432 1589 483 q 1511 288 1511 381 q 1550 142 1511 193 q 1661 92 1589 92 q 1773 143 1733 92 q 1813 288 1813 194 q 1773 432 1813 381 z "},"‹":{"ha":383,"x_min":32,"x_max":326,"o":"m 178 361 l 326 119 l 193 119 l 32 361 l 193 603 l 326 603 l 178 361 z "},"›":{"ha":400,"x_min":106,"x_max":400,"o":"m 254 363 l 106 604 l 239 604 l 400 363 l 239 119 l 106 119 l 254 363 z "},"⁄":{"ha":111,"x_min":-385,"x_max":483,"o":"m -385 0 l 331 972 l 483 972 l -231 0 l -385 0 z "},"€":{"ha":1097,"x_min":51,"x_max":1058,"o":"m 963 261 l 1058 153 q 885 36 985 79 q 682 -7 785 -7 q 383 85 514 -7 q 203 326 253 176 l 51 326 l 51 415 l 182 415 q 176 488 176 447 q 182 561 176 529 l 51 561 l 51 650 l 204 650 q 388 886 256 796 q 689 976 519 976 q 890 936 792 976 q 1057 826 988 896 l 963 707 q 690 831 846 831 q 510 781 592 831 q 383 650 428 732 l 732 650 l 732 561 l 350 561 q 343 489 343 522 q 351 415 343 450 l 732 415 l 732 326 l 383 326 q 510 195 428 244 q 690 146 592 146 q 963 261 840 146 z "},"ℓ":{"ha":649,"x_min":36,"x_max":600,"o":"m 447 981 q 559 935 518 981 q 600 806 600 889 q 267 304 600 579 q 271 163 251 208 q 350 117 290 117 q 536 235 439 117 l 592 168 q 314 -6 476 -6 q 135 222 135 -6 l 64 174 l 36 251 l 149 333 l 207 697 q 297 910 233 839 q 447 981 361 981 m 444 883 q 333 711 364 883 l 288 440 q 442 622 382 524 q 501 803 501 719 q 486 863 501 842 q 444 883 471 883 z "},"™":{"ha":1231,"x_min":-7,"x_max":1158,"o":"m 451 869 l 281 869 l 281 389 l 163 389 l 163 869 l -7 869 l -7 972 l 451 972 l 451 869 m 1158 389 l 1051 389 l 1051 801 l 883 449 l 806 449 l 639 801 l 639 389 l 531 389 l 531 972 l 667 972 l 844 601 l 1022 972 l 1158 972 l 1158 389 z "},"Ω":{"ha":1225,"x_min":13,"x_max":1213,"o":"m 256 849 q 326 915 256 849 q 613 981 397 981 q 970 849 828 981 q 1113 517 1113 717 q 1059 307 1113 413 q 922 139 1006 201 l 1213 139 l 1213 0 l 751 0 l 751 129 q 906 290 844 185 q 967 503 967 396 q 866 741 967 647 q 613 835 765 835 q 360 741 460 835 q 260 503 260 647 q 320 290 260 396 q 475 128 381 185 l 475 0 l 13 0 l 13 139 l 304 139 q 167 307 221 201 q 114 517 114 413 q 256 849 114 717 z "},"℮":{"ha":1124,"x_min":97,"x_max":1028,"o":"m 1028 433 l 274 433 q 267 428 267 433 l 267 200 q 278 174 267 188 q 564 50 393 50 q 730 87 651 50 q 863 188 808 124 l 931 188 q 769 69 867 113 q 563 25 672 25 q 233 147 369 25 q 97 443 97 269 q 233 740 97 617 q 563 863 369 863 q 892 740 756 863 q 1028 443 1028 617 l 1028 433 m 858 463 l 858 692 q 846 719 858 707 q 564 838 728 838 q 279 715 397 838 q 267 688 267 703 l 267 463 q 274 456 267 456 l 851 456 q 858 463 858 456 z "},"⅛":{"ha":1158,"x_min":22,"x_max":1110,"o":"m 138 399 l 138 876 l 22 876 l 22 972 l 254 972 l 254 399 l 138 399 m 69 0 l 785 972 l 938 972 l 224 0 l 69 0 m 875 578 q 1025 538 969 578 q 1081 428 1081 497 q 996 307 1081 346 q 1080 249 1050 288 q 1110 161 1110 211 q 1047 40 1110 85 q 876 -4 985 -4 q 705 40 768 -4 q 642 160 642 83 q 674 249 642 210 q 761 307 706 288 q 672 432 672 347 q 727 539 672 500 q 875 578 782 578 m 876 500 q 797 479 825 500 q 769 422 769 458 q 876 344 769 344 q 982 422 982 344 q 954 479 982 458 q 876 500 926 500 m 875 258 q 784 235 817 258 q 751 172 751 213 q 784 106 751 129 q 876 82 817 82 q 967 105 935 82 q 1000 171 1000 128 q 967 235 1000 213 q 875 258 935 258 z "},"⅜":{"ha":1244,"x_min":15,"x_max":1196,"o":"m 156 0 l 871 972 l 1024 972 l 310 0 l 156 0 m 251 735 l 282 732 q 400 684 356 725 q 444 576 444 643 q 384 444 444 496 q 224 393 324 393 q 15 457 103 393 l 64 549 q 215 482 131 482 q 300 507 269 482 q 331 575 331 532 q 214 661 331 661 l 128 661 l 128 725 l 283 883 l 43 883 l 43 969 l 417 969 l 417 901 l 251 735 m 961 578 q 1111 538 1056 578 q 1167 428 1167 497 q 1082 307 1167 346 q 1166 249 1136 288 q 1196 161 1196 211 q 1133 40 1196 85 q 963 -4 1071 -4 q 791 40 854 -4 q 728 160 728 83 q 760 249 728 210 q 847 307 792 288 q 758 432 758 347 q 813 539 758 500 q 961 578 868 578 m 963 500 q 883 479 911 500 q 856 422 856 458 q 963 344 856 344 q 1068 422 1068 344 q 1040 479 1068 458 q 963 500 1013 500 m 961 258 q 870 235 903 258 q 838 172 838 213 q 870 106 838 129 q 963 82 903 82 q 1053 105 1021 82 q 1086 171 1086 128 q 1053 235 1086 213 q 961 258 1021 258 z "},"⅝":{"ha":1269,"x_min":32,"x_max":1221,"o":"m 186 879 l 186 746 q 260 754 217 754 q 417 710 358 754 q 476 589 476 665 q 415 447 476 500 q 250 394 353 394 q 32 461 131 394 l 79 553 q 238 483 151 483 q 322 509 292 483 q 353 582 353 535 q 322 644 353 622 q 238 667 292 667 q 79 656 143 667 l 79 972 l 451 972 l 451 879 l 186 879 m 181 0 l 896 972 l 1049 972 l 335 0 l 181 0 m 986 578 q 1136 538 1081 578 q 1192 428 1192 497 q 1107 307 1192 346 q 1191 249 1161 288 q 1221 161 1221 211 q 1158 40 1221 85 q 988 -4 1096 -4 q 816 40 879 -4 q 753 160 753 83 q 785 249 753 210 q 872 307 817 288 q 783 432 783 347 q 838 539 783 500 q 986 578 893 578 m 988 500 q 908 479 936 500 q 881 422 881 458 q 988 344 881 344 q 1093 422 1093 344 q 1065 479 1093 458 q 988 500 1038 500 m 986 258 q 895 235 928 258 q 863 172 863 213 q 895 106 863 129 q 988 82 928 82 q 1078 105 1046 82 q 1111 171 1111 128 q 1078 235 1111 213 q 986 258 1046 258 z "},"⅞":{"ha":1224,"x_min":44,"x_max":1175,"o":"m 256 399 l 132 399 l 361 879 l 147 879 l 147 794 l 44 794 l 44 972 l 488 972 l 488 889 l 256 399 m 135 0 l 850 972 l 1003 972 l 289 0 l 135 0 m 940 578 q 1090 538 1035 578 q 1146 428 1146 497 q 1061 307 1146 346 q 1145 249 1115 288 q 1175 161 1175 211 q 1113 40 1175 85 q 942 -4 1050 -4 q 770 40 833 -4 q 707 160 707 83 q 739 249 707 210 q 826 307 771 288 q 738 432 738 347 q 792 539 738 500 q 940 578 847 578 m 942 500 q 863 479 890 500 q 835 422 835 458 q 942 344 835 344 q 1047 422 1047 344 q 1019 479 1047 458 q 942 500 992 500 m 940 258 q 849 235 882 258 q 817 172 817 213 q 849 106 817 129 q 942 82 882 82 q 1033 105 1000 82 q 1065 171 1065 128 q 1033 235 1065 213 q 940 258 1000 258 z "},"∂":{"ha":854,"x_min":50,"x_max":788,"o":"m 375 979 q 676 842 564 979 q 788 475 788 704 q 683 120 788 247 q 392 -7 578 -7 q 143 81 236 -7 q 50 318 50 169 q 135 544 50 460 q 364 629 221 629 q 533 584 464 629 q 628 461 601 539 q 571 742 640 642 q 364 842 501 842 q 142 767 240 842 l 78 892 q 375 979 215 979 m 393 499 q 253 451 304 499 q 203 321 203 404 q 256 184 203 233 q 400 135 310 135 q 549 189 497 135 q 601 314 601 243 q 545 446 601 393 q 393 499 489 499 z "},"∏":{"ha":1042,"x_min":128,"x_max":914,"o":"m 914 -269 l 754 -269 l 754 894 l 288 894 l 288 -269 l 128 -269 l 128 1031 l 914 1031 l 914 -269 z "},"∑":{"ha":849,"x_min":44,"x_max":844,"o":"m 831 885 l 244 885 l 629 426 l 242 -44 l 844 -44 l 844 -192 l 44 -192 l 44 -65 l 453 425 l 56 904 l 56 1032 l 831 1032 l 831 885 z "},"−":{"ha":692,"x_min":49,"x_max":643,"o":"m 643 396 l 49 396 l 49 506 l 643 506 l 643 396 z "},"∕":{"ha":460,"x_min":-29,"x_max":547,"o":"m 107 -162 l -29 -162 l 411 1133 l 547 1133 l 107 -162 z "},"∙":{"ha":390,"x_min":64,"x_max":326,"o":"m 101 470 q 119 489 101 470 q 194 508 138 508 q 289 470 251 508 q 326 372 326 432 q 289 273 326 313 q 194 233 251 233 q 101 273 139 233 q 64 372 64 313 q 101 470 64 432 z "},"√":{"ha":957,"x_min":15,"x_max":953,"o":"m 296 554 l 482 -40 l 800 1042 l 953 1042 l 567 -214 l 396 -214 l 186 419 l 15 419 l 15 554 l 296 554 z "},"∞":{"ha":1215,"x_min":49,"x_max":1167,"o":"m 899 699 q 1090 619 1014 699 q 1167 419 1167 539 q 1090 219 1167 299 q 899 139 1014 139 q 730 188 794 139 q 608 325 665 236 q 488 188 553 236 q 317 139 422 139 q 125 219 201 139 q 49 418 49 299 q 125 619 49 539 q 317 699 201 699 q 485 650 421 699 q 607 513 550 601 q 728 650 663 601 q 899 699 793 699 m 899 257 q 1011 303 967 257 q 1056 419 1056 349 q 1011 536 1056 490 q 899 582 967 582 q 765 540 817 582 q 664 418 713 497 q 766 299 714 340 q 899 257 818 257 m 317 256 q 449 298 397 256 q 551 419 501 340 q 449 539 501 497 q 317 581 397 581 q 204 535 249 581 q 160 418 160 489 q 204 301 160 347 q 317 256 249 256 z "},"∫":{"ha":475,"x_min":-11,"x_max":481,"o":"m 481 1143 l 461 1032 q 392 1047 426 1047 q 310 1010 335 1047 q 286 881 286 972 q 301 508 286 800 q 317 125 317 217 q 269 -108 317 -39 q 107 -178 221 -178 q -11 -149 39 -178 l 10 -37 q 89 -60 54 -60 q 172 -19 147 -60 q 197 114 197 21 q 181 495 197 206 q 165 867 165 785 q 213 1100 165 1031 q 374 1169 261 1169 q 481 1143 422 1169 z "},"≈":{"ha":692,"x_min":92,"x_max":601,"o":"m 226 710 q 344 670 275 710 q 438 631 413 631 q 492 701 492 631 l 601 701 q 467 507 601 507 q 348 547 415 507 q 257 586 281 586 q 203 515 203 586 l 92 515 q 226 710 92 710 m 226 404 q 344 365 275 404 q 438 325 413 325 q 492 394 492 325 l 601 394 q 467 200 601 200 q 348 240 415 200 q 257 279 281 279 q 203 210 203 279 l 92 210 q 226 404 92 404 z "},"≠":{"ha":692,"x_min":49,"x_max":643,"o":"m 428 542 l 371 360 l 643 360 l 643 250 l 336 250 l 271 43 l 149 43 l 214 250 l 49 250 l 49 360 l 249 360 l 306 542 l 49 542 l 49 651 l 340 651 l 404 851 l 526 851 l 463 651 l 643 651 l 643 542 l 428 542 z "},"≤":{"ha":692,"x_min":49,"x_max":643,"o":"m 643 744 l 156 544 l 643 344 l 643 224 l 49 475 l 49 613 l 643 865 l 643 744 m 643 28 l 49 28 l 49 139 l 643 139 l 643 28 z "},"≥":{"ha":692,"x_min":49,"x_max":643,"o":"m 49 350 l 536 551 l 49 751 l 49 872 l 643 619 l 643 482 l 49 231 l 49 350 m 643 28 l 49 28 l 49 139 l 643 139 l 643 28 z "},"◊":{"ha":744,"x_min":49,"x_max":696,"o":"m 696 458 l 371 -25 l 49 458 l 372 939 l 696 458 m 196 458 l 371 201 l 549 458 l 372 715 l 196 458 z "},"ﬁ":{"ha":871,"x_min":51,"x_max":767,"o":"m 740 881 q 727 868 740 881 q 674 854 714 854 q 607 881 633 854 q 581 950 581 908 q 607 1020 581 993 q 674 1047 633 1047 q 740 1020 714 1047 q 767 950 767 993 q 740 881 767 908 m 149 713 l 149 783 q 224 972 149 907 q 403 1038 300 1038 q 540 1004 482 1038 l 535 865 q 407 897 464 897 q 307 799 307 897 l 307 713 l 500 713 l 500 593 l 307 593 l 307 0 l 149 0 l 149 593 l 51 593 l 51 713 l 149 713 m 594 739 l 753 739 l 753 0 l 594 0 l 594 739 z "},"ﬂ":{"ha":904,"x_min":51,"x_max":779,"o":"m 149 713 l 149 803 q 220 978 149 910 q 404 1044 292 1046 q 542 1013 486 1042 l 538 874 q 435 910 490 910 q 343 874 379 911 q 307 779 307 838 l 307 713 l 501 713 l 500 594 l 307 594 l 307 0 l 149 0 l 149 594 l 51 594 l 53 713 l 149 713 m 779 1031 l 779 0 l 619 0 l 619 1031 l 779 1031 z "}}}
